<?xml version="1.0" encoding="UTF-8" standalone="no"?>
<svg width="571px" height="90px" viewBox="0 0 571 90" version="1.1" xmlns="http://www.w3.org/2000/svg" xmlns:xlink="http://www.w3.org/1999/xlink">
    <!-- Generator: Sketch 39.1 (31720) - http://www.bohemiancoding.com/sketch -->
    <title>starter-kit</title>
    <desc>Created with Sketch.</desc>
    <defs></defs>
    <g id="Page-1" stroke="none" stroke-width="1" fill="none" fill-rule="evenodd">
        <g id="Group">
            <path d="M0,45 L0,82 C0,84.1 0.8,86 2.1,87.4 C3.5,89 5.6,90 7.9,90 L80.1,90 C84.5,90 88,86.4 88,82 L88,45" id="Shape" fill="#198EE5"></path>
            <path d="M0,8 C0,3.6 3.5,0 7.9,0 L80.1,0 C82.4,0 84.5,1 85.9,2.6 C87.2,4 88,5.9 88,8 L88,45 L0,45 L0,8" id="Shape" fill="#3FADFF"></path>
            <path d="M22.9,19 L44,19 L44,45 L19,45 L19,22.8 C19,20.7 20.7,19 22.9,19 L22.9,19 Z" id="Shape" fill="#D9F1FF"></path>
            <path d="M44,19 L65.1,19 C67.2,19 69,20.7 69,22.6 L69,45 L44,45 L44,19 L44,19 Z" id="Shape" fill="#73BEFF"></path>
            <path d="M65.1,71 L44,71 L44,45 L69,45 L69,67.2 C69,69.3 67.3,71 65.1,71 L65.1,71 Z" id="Shape" fill="#D9F1FF"></path>
            <path d="M44,71 L22.9,71 C20.8,71 19,69.3 19,67.4 L19,45 L44,45 L44,71 L44,71 Z" id="Shape" fill="#73BEFF"></path>
        </g>
        <path d="M111.216,36 L120.984,36 L120.984,34.296 L113.184,34.296 L113.184,20.256 L111.216,20.256 L111.216,36 Z M124.536,25.944 L129.96,25.944 L129.96,36 L131.928,36 L131.928,24.336 L124.536,24.336 L124.536,25.944 Z M130.728,21.936 C131.616,21.936 132.312,21.336 132.312,20.424 C132.312,19.488 131.616,18.888 130.728,18.888 C129.816,18.888 129.144,19.488 129.144,20.424 C129.144,21.336 129.816,21.936 130.728,21.936 L130.728,21.936 Z M140.184,37.944 C140.184,37.272 140.568,36.6 141.672,36 C142.176,36.144 142.776,36.192 143.448,36.192 L145.728,36.192 C147.504,36.192 148.392,36.504 148.392,37.608 C148.392,38.808 146.712,40.008 144,40.008 C141.504,40.008 140.184,39.168 140.184,37.944 L140.184,37.944 Z M138.48,38.136 C138.48,40.2 140.448,41.376 143.856,41.376 C147.816,41.376 150.336,39.48 150.336,37.296 C150.336,35.328 148.896,34.56 145.896,34.56 L143.28,34.56 C141.744,34.56 140.856,34.152 140.856,33.216 C140.856,32.664 141.192,32.232 141.768,31.872 C142.416,32.16 143.136,32.304 143.736,32.304 C146.256,32.304 148.248,30.792 148.248,28.296 C148.248,27.264 147.72,26.424 147.168,25.848 L150.288,25.848 L150.288,24.336 L145.464,24.336 C144.96,24.144 144.408,24.048 143.736,24.048 C141.264,24.048 139.152,25.68 139.152,28.224 C139.152,29.616 139.8,30.648 140.592,31.248 L140.592,31.344 C139.704,31.944 139.2,32.784 139.2,33.528 C139.2,34.512 139.776,35.112 140.4,35.448 L140.4,35.544 C139.152,36.264 138.48,37.2 138.48,38.136 L138.48,38.136 Z M143.736,30.984 C142.272,30.984 141.048,29.904 141.048,28.224 C141.048,26.592 142.272,25.488 143.736,25.488 C145.224,25.488 146.424,26.592 146.424,28.224 C146.424,29.904 145.224,30.984 143.736,30.984 L143.736,30.984 Z M153.36,36 L155.328,36 L155.328,27.864 C156.696,26.448 157.632,25.752 159.024,25.752 C160.944,25.752 161.712,26.808 161.712,29.016 L161.712,36 L163.68,36 L163.68,28.752 C163.68,25.68 162.408,24.048 159.648,24.048 C157.824,24.048 156.48,25.032 155.232,26.328 L155.328,23.568 L155.328,18.912 L153.36,18.912 L153.36,36 Z M170.448,31.464 C170.448,34.344 171.552,36.288 174.936,36.288 C176.208,36.288 177.552,35.976 178.608,35.592 L178.176,34.152 C177.36,34.464 176.472,34.68 175.368,34.68 C173.112,34.68 172.416,33.576 172.416,31.488 L172.416,25.944 L178.152,25.944 L178.152,24.336 L172.416,24.336 L172.416,21.072 L170.784,21.072 L170.52,24.336 L167.16,24.456 L167.16,25.944 L170.448,25.944 L170.448,31.464 Z M182.112,36 L184.08,36 L184.08,27.864 C185.448,26.448 186.384,25.752 187.776,25.752 C189.696,25.752 190.464,26.808 190.464,29.016 L190.464,36 L192.432,36 L192.432,28.752 C192.432,25.68 191.16,24.048 188.4,24.048 C186.576,24.048 185.232,25.032 184.008,26.328 L183.912,26.328 L183.744,24.336 L182.112,24.336 L182.112,36 Z M196.416,25.944 L201.84,25.944 L201.84,36 L203.808,36 L203.808,24.336 L196.416,24.336 L196.416,25.944 Z M202.608,21.936 C203.496,21.936 204.192,21.336 204.192,20.424 C204.192,19.488 203.496,18.888 202.608,18.888 C201.696,18.888 201.024,19.488 201.024,20.424 C201.024,21.336 201.696,21.936 202.608,21.936 L202.608,21.936 Z M210.864,36 L212.832,36 L212.832,27.864 C214.2,26.448 215.136,25.752 216.528,25.752 C218.448,25.752 219.216,26.808 219.216,29.016 L219.216,36 L221.184,36 L221.184,28.752 C221.184,25.68 219.912,24.048 217.152,24.048 C215.328,24.048 213.984,25.032 212.76,26.328 L212.664,26.328 L212.496,24.336 L210.864,24.336 L210.864,36 Z M226.44,37.944 C226.44,37.272 226.824,36.6 227.928,36 C228.432,36.144 229.032,36.192 229.704,36.192 L231.984,36.192 C233.76,36.192 234.648,36.504 234.648,37.608 C234.648,38.808 232.968,40.008 230.256,40.008 C227.76,40.008 226.44,39.168 226.44,37.944 L226.44,37.944 Z M224.736,38.136 C224.736,40.2 226.704,41.376 230.112,41.376 C234.072,41.376 236.592,39.48 236.592,37.296 C236.592,35.328 235.152,34.56 232.152,34.56 L229.536,34.56 C228,34.56 227.112,34.152 227.112,33.216 C227.112,32.664 227.448,32.232 228.024,31.872 C228.672,32.16 229.392,32.304 229.992,32.304 C232.512,32.304 234.504,30.792 234.504,28.296 C234.504,27.264 233.976,26.424 233.424,25.848 L236.544,25.848 L236.544,24.336 L231.72,24.336 C231.216,24.144 230.664,24.048 229.992,24.048 C227.52,24.048 225.408,25.68 225.408,28.224 C225.408,29.616 226.056,30.648 226.848,31.248 L226.848,31.344 C225.96,31.944 225.456,32.784 225.456,33.528 C225.456,34.512 226.032,35.112 226.656,35.448 L226.656,35.544 C225.408,36.264 224.736,37.2 224.736,38.136 L224.736,38.136 Z M229.992,30.984 C228.528,30.984 227.304,29.904 227.304,28.224 C227.304,26.592 228.528,25.488 229.992,25.488 C231.48,25.488 232.68,26.592 232.68,28.224 C232.68,29.904 231.48,30.984 229.992,30.984 L229.992,30.984 Z M253.8,36 L257.736,36 C262.392,36 264.936,33.072 264.936,28.056 C264.936,23.064 262.392,20.256 257.64,20.256 L253.8,20.256 L253.8,36 Z M255.792,34.368 L255.792,21.888 L257.52,21.888 C261.096,21.888 262.872,24.096 262.872,28.056 C262.872,32.04 261.096,34.368 257.52,34.368 L255.792,34.368 Z M267.792,30.192 C267.792,34.008 270.6,36.288 274.056,36.288 C275.928,36.288 277.392,35.664 278.544,34.92 L277.848,33.624 C276.768,34.296 275.664,34.704 274.296,34.704 C271.752,34.704 269.928,33.12 269.832,30.648 L278.952,30.648 C279,30.36 279.024,29.928 279.024,29.52 C279.024,26.232 277.056,24.048 273.72,24.048 C270.696,24.048 267.792,26.376 267.792,30.192 L267.792,30.192 Z M269.808,29.232 C270.12,26.952 271.848,25.608 273.744,25.608 C275.904,25.608 277.2,26.904 277.2,29.232 L269.808,29.232 Z M282.24,34.464 C283.656,35.448 285.672,36.288 287.952,36.288 C291.288,36.288 293.136,34.704 293.136,32.808 C293.136,31.032 291.624,30.12 288.48,29.328 C286.368,28.8 284.928,28.224 284.928,27.264 C284.928,26.352 285.624,25.584 287.808,25.584 C289.248,25.584 290.496,26.088 291.528,26.808 L292.488,25.536 C291.336,24.744 289.56,24.048 287.808,24.048 C284.592,24.048 282.912,25.488 282.912,27.36 C282.912,29.016 284.952,30.072 287.352,30.672 C290.208,31.368 291.144,32.016 291.144,32.928 C291.144,33.936 290.112,34.752 288.024,34.752 C285.936,34.752 284.496,34.128 283.2,33.168 L282.24,34.464 Z M297.048,25.944 L302.472,25.944 L302.472,36 L304.44,36 L304.44,24.336 L297.048,24.336 L297.048,25.944 Z M303.24,21.936 C304.128,21.936 304.824,21.336 304.824,20.424 C304.824,19.488 304.128,18.888 303.24,18.888 C302.328,18.888 301.656,19.488 301.656,20.424 C301.656,21.336 302.328,21.936 303.24,21.936 L303.24,21.936 Z M312.696,37.944 C312.696,37.272 313.08,36.6 314.184,36 C314.688,36.144 315.288,36.192 315.96,36.192 L318.24,36.192 C320.016,36.192 320.904,36.504 320.904,37.608 C320.904,38.808 319.224,40.008 316.512,40.008 C314.016,40.008 312.696,39.168 312.696,37.944 L312.696,37.944 Z M310.992,38.136 C310.992,40.2 312.96,41.376 316.368,41.376 C320.328,41.376 322.848,39.48 322.848,37.296 C322.848,35.328 321.408,34.56 318.408,34.56 L315.792,34.56 C314.256,34.56 313.368,34.152 313.368,33.216 C313.368,32.664 313.704,32.232 314.28,31.872 C314.928,32.16 315.648,32.304 316.248,32.304 C318.768,32.304 320.76,30.792 320.76,28.296 C320.76,27.264 320.232,26.424 319.68,25.848 L322.8,25.848 L322.8,24.336 L317.976,24.336 C317.472,24.144 316.92,24.048 316.248,24.048 C313.776,24.048 311.664,25.68 311.664,28.224 C311.664,29.616 312.312,30.648 313.104,31.248 L313.104,31.344 C312.216,31.944 311.712,32.784 311.712,33.528 C311.712,34.512 312.288,35.112 312.912,35.448 L312.912,35.544 C311.664,36.264 310.992,37.2 310.992,38.136 L310.992,38.136 Z M316.248,30.984 C314.784,30.984 313.56,29.904 313.56,28.224 C313.56,26.592 314.784,25.488 316.248,25.488 C317.736,25.488 318.936,26.592 318.936,28.224 C318.936,29.904 317.736,30.984 316.248,30.984 L316.248,30.984 Z M325.872,36 L327.84,36 L327.84,27.864 C329.208,26.448 330.144,25.752 331.536,25.752 C333.456,25.752 334.224,26.808 334.224,29.016 L334.224,36 L336.192,36 L336.192,28.752 C336.192,25.68 334.92,24.048 332.16,24.048 C330.336,24.048 328.992,25.032 327.768,26.328 L327.672,26.328 L327.504,24.336 L325.872,24.336 L325.872,36 Z M354,33.96 C355.416,35.376 357.408,36.288 359.712,36.288 C363.168,36.288 365.28,34.296 365.28,31.8 C365.28,29.472 363.744,28.392 361.8,27.6 L359.592,26.64 C358.248,26.088 356.784,25.536 356.784,24.024 C356.784,22.608 358.008,21.72 359.904,21.72 C361.464,21.72 362.664,22.296 363.696,23.208 L364.752,21.912 C363.6,20.76 361.872,19.968 359.904,19.968 C356.904,19.968 354.744,21.744 354.744,24.144 C354.744,26.448 356.568,27.576 358.152,28.2 L360.408,29.184 C362.016,29.856 363.24,30.36 363.24,31.968 C363.24,33.504 361.968,34.536 359.736,34.536 C358.008,34.536 356.376,33.744 355.2,32.568 L354,33.96 Z M368.784,39.216 L368.376,40.776 C368.784,40.92 369.36,41.016 369.912,41.016 C372.552,41.016 373.992,39.264 374.856,36.96 L379.992,24.336 L378.12,24.336 L375.576,30.792 C375.192,31.848 374.736,33.072 374.328,34.176 L374.232,34.176 C373.752,33.048 373.248,31.824 372.792,30.792 L369.936,24.336 L367.944,24.336 L373.392,36.024 L373.032,36.888 C372.456,38.328 371.472,39.384 369.84,39.384 C369.48,39.384 369.096,39.312 368.784,39.216 L368.784,39.216 Z M382.872,34.464 C384.288,35.448 386.304,36.288 388.584,36.288 C391.92,36.288 393.768,34.704 393.768,32.808 C393.768,31.032 392.256,30.12 389.112,29.328 C387,28.8 385.56,28.224 385.56,27.264 C385.56,26.352 386.256,25.584 388.44,25.584 C389.88,25.584 391.128,26.088 392.16,26.808 L393.12,25.536 C391.968,24.744 390.192,24.048 388.44,24.048 C385.224,24.048 383.544,25.488 383.544,27.36 C383.544,29.016 385.584,30.072 387.984,30.672 C390.84,31.368 391.776,32.016 391.776,32.928 C391.776,33.936 390.744,34.752 388.656,34.752 C386.568,34.752 385.128,34.128 383.832,33.168 L382.872,34.464 Z M400.464,31.464 C400.464,34.344 401.568,36.288 404.952,36.288 C406.224,36.288 407.568,35.976 408.624,35.592 L408.192,34.152 C407.376,34.464 406.488,34.68 405.384,34.68 C403.128,34.68 402.432,33.576 402.432,31.488 L402.432,25.944 L408.168,25.944 L408.168,24.336 L402.432,24.336 L402.432,21.072 L400.8,21.072 L400.536,24.336 L397.176,24.456 L397.176,25.944 L400.464,25.944 L400.464,31.464 Z M411.552,30.192 C411.552,34.008 414.36,36.288 417.816,36.288 C419.688,36.288 421.152,35.664 422.304,34.92 L421.608,33.624 C420.528,34.296 419.424,34.704 418.056,34.704 C415.512,34.704 413.688,33.12 413.592,30.648 L422.712,30.648 C422.76,30.36 422.784,29.928 422.784,29.52 C422.784,26.232 420.816,24.048 417.48,24.048 C414.456,24.048 411.552,26.376 411.552,30.192 L411.552,30.192 Z M413.568,29.232 C413.88,26.952 415.608,25.608 417.504,25.608 C419.664,25.608 420.96,26.904 420.96,29.232 L413.568,29.232 Z M425.712,36 L427.608,36 L427.608,27.552 C428.208,26.352 428.736,25.752 429.552,25.752 C430.416,25.752 430.872,26.448 430.872,27.816 L430.872,36 L432.456,36 L432.456,27.552 C433.056,26.352 433.608,25.752 434.448,25.752 C435.312,25.752 435.72,26.448 435.72,27.816 L435.72,36 L437.616,36 L437.616,27.648 C437.616,25.32 436.68,24.048 435.072,24.048 C433.776,24.048 433.008,24.84 432.312,26.064 C432.024,24.72 431.28,24.048 430.104,24.048 C428.784,24.048 428.064,24.792 427.488,25.872 L427.416,25.872 L427.248,24.336 L425.712,24.336 L425.712,36 Z" id="Lightning-Design-Sys" fill="#54698D"></path>
        <path d="M109.608,65.96 C111.024,67.376 113.016,68.288 115.32,68.288 C118.776,68.288 120.888,66.296 120.888,63.8 C120.888,61.472 119.352,60.392 117.408,59.6 L115.2,58.64 C113.856,58.088 112.392,57.536 112.392,56.024 C112.392,54.608 113.616,53.72 115.512,53.72 C117.072,53.72 118.272,54.296 119.304,55.208 L120.36,53.912 C119.208,52.76 117.48,51.968 115.512,51.968 C112.512,51.968 110.352,53.744 110.352,56.144 C110.352,58.448 112.176,59.576 113.76,60.2 L116.016,61.184 C117.624,61.856 118.848,62.36 118.848,63.968 C118.848,65.504 117.576,66.536 115.344,66.536 C113.616,66.536 111.984,65.744 110.808,64.568 L109.608,65.96 Z M127.32,63.464 C127.32,66.344 128.424,68.288 131.808,68.288 C133.08,68.288 134.424,67.976 135.48,67.592 L135.048,66.152 C134.232,66.464 133.344,66.68 132.24,66.68 C129.984,66.68 129.288,65.576 129.288,63.488 L129.288,57.944 L135.024,57.944 L135.024,56.336 L129.288,56.336 L129.288,53.072 L127.656,53.072 L127.392,56.336 L124.032,56.456 L124.032,57.944 L127.32,57.944 L127.32,63.464 Z M138.696,64.976 C138.696,67.064 140.472,68.288 142.656,68.288 C144.312,68.288 145.968,67.424 147.264,66.416 L147.336,66.416 L147.504,68 L149.112,68 L149.112,60.848 C149.112,57.944 147.576,56.048 144.384,56.048 C142.344,56.048 140.376,56.96 139.2,57.728 L139.968,59.072 C141.048,58.4 142.536,57.68 144.048,57.68 C146.304,57.68 147.096,59.024 147.144,60.608 C141.12,61.088 138.696,62.36 138.696,64.976 L138.696,64.976 Z M140.616,64.832 C140.616,63.296 142.152,62.312 147.144,61.904 L147.144,64.976 C145.824,66.08 144.504,66.704 143.184,66.704 C141.84,66.704 140.616,66.152 140.616,64.832 L140.616,64.832 Z M154.632,68 L156.6,68 L156.6,61.16 C157.992,58.736 159.648,57.824 161.4,57.824 C162.312,57.824 162.744,57.944 163.56,58.232 L164.016,56.528 C163.296,56.168 162.576,56.048 161.712,56.048 C159.552,56.048 157.728,57.224 156.504,59.096 L156.432,59.096 L156.264,56.336 L154.632,56.336 L154.632,68 Z M170.448,63.464 C170.448,66.344 171.552,68.288 174.936,68.288 C176.208,68.288 177.552,67.976 178.608,67.592 L178.176,66.152 C177.36,66.464 176.472,66.68 175.368,66.68 C173.112,66.68 172.416,65.576 172.416,63.488 L172.416,57.944 L178.152,57.944 L178.152,56.336 L172.416,56.336 L172.416,53.072 L170.784,53.072 L170.52,56.336 L167.16,56.456 L167.16,57.944 L170.448,57.944 L170.448,63.464 Z M181.536,62.192 C181.536,66.008 184.344,68.288 187.8,68.288 C189.672,68.288 191.136,67.664 192.288,66.92 L191.592,65.624 C190.512,66.296 189.408,66.704 188.04,66.704 C185.496,66.704 183.672,65.12 183.576,62.648 L192.696,62.648 C192.744,62.36 192.768,61.928 192.768,61.52 C192.768,58.232 190.8,56.048 187.464,56.048 C184.44,56.048 181.536,58.376 181.536,62.192 L181.536,62.192 Z M183.552,61.232 C183.864,58.952 185.592,57.608 187.488,57.608 C189.648,57.608 190.944,58.904 190.944,61.232 L183.552,61.232 Z M197.76,68 L199.728,68 L199.728,61.16 C201.12,58.736 202.776,57.824 204.528,57.824 C205.44,57.824 205.872,57.944 206.688,58.232 L207.144,56.528 C206.424,56.168 205.704,56.048 204.84,56.048 C202.68,56.048 200.856,57.224 199.632,59.096 L199.56,59.096 L199.392,56.336 L197.76,56.336 L197.76,68 Z M225.36,68 L227.376,68 L227.376,63.008 L230.112,59.816 L234.672,68 L236.904,68 L231.36,58.256 L236.328,52.256 L234.072,52.256 L227.448,60.152 L227.376,60.152 L227.376,52.256 L225.36,52.256 L225.36,68 Z M239.544,57.944 L244.968,57.944 L244.968,68 L246.936,68 L246.936,56.336 L239.544,56.336 L239.544,57.944 Z M245.736,53.936 C246.624,53.936 247.32,53.336 247.32,52.424 C247.32,51.488 246.624,50.888 245.736,50.888 C244.824,50.888 244.152,51.488 244.152,52.424 C244.152,53.336 244.824,53.936 245.736,53.936 L245.736,53.936 Z M256.704,63.464 C256.704,66.344 257.808,68.288 261.192,68.288 C262.464,68.288 263.808,67.976 264.864,67.592 L264.432,66.152 C263.616,66.464 262.728,66.68 261.624,66.68 C259.368,66.68 258.672,65.576 258.672,63.488 L258.672,57.944 L264.408,57.944 L264.408,56.336 L258.672,56.336 L258.672,53.072 L257.04,53.072 L256.776,56.336 L253.416,56.456 L253.416,57.944 L256.704,57.944 L256.704,63.464 Z" id="Starter-Kit" fill="#16325C"></path>
        <path d="M282.302,68 L283.226,68 L283.324,67.244 L283.366,67.244 C284.01,67.818 284.822,68.168 285.48,68.168 C287.104,68.168 288.56,66.81 288.56,64.486 C288.56,62.386 287.566,61.028 285.732,61.028 C284.934,61.028 284.066,61.434 283.422,62.064 L283.45,60.748 L283.45,58.032 L282.302,58.032 L282.302,68 Z M283.45,66.404 L283.45,63.016 C284.15,62.316 284.85,61.994 285.452,61.994 C286.81,61.994 287.37,63.002 287.37,64.5 C287.37,66.18 286.488,67.202 285.298,67.202 C284.808,67.202 284.094,66.978 283.45,66.404 L283.45,66.404 Z M290.562,69.876 L290.324,70.786 C290.562,70.87 290.898,70.926 291.22,70.926 C292.76,70.926 293.6,69.904 294.104,68.56 L297.1,61.196 L296.008,61.196 L294.524,64.962 C294.3,65.578 294.034,66.292 293.796,66.936 L293.74,66.936 C293.46,66.278 293.166,65.564 292.9,64.962 L291.234,61.196 L290.072,61.196 L293.25,68.014 L293.04,68.518 C292.704,69.358 292.13,69.974 291.178,69.974 C290.968,69.974 290.744,69.932 290.562,69.876 L290.562,69.876 Z M307.096,66.81 C307.922,67.636 309.084,68.168 310.428,68.168 C312.444,68.168 313.676,67.006 313.676,65.55 C313.676,64.192 312.78,63.562 311.646,63.1 L310.358,62.54 C309.574,62.218 308.72,61.896 308.72,61.014 C308.72,60.188 309.434,59.67 310.54,59.67 C311.45,59.67 312.15,60.006 312.752,60.538 L313.368,59.782 C312.696,59.11 311.688,58.648 310.54,58.648 C308.79,58.648 307.53,59.684 307.53,61.084 C307.53,62.428 308.594,63.086 309.518,63.45 L310.834,64.024 C311.772,64.416 312.486,64.71 312.486,65.648 C312.486,66.544 311.744,67.146 310.442,67.146 C309.434,67.146 308.482,66.684 307.796,65.998 L307.096,66.81 Z M315.678,66.236 C315.678,67.454 316.714,68.168 317.988,68.168 C318.954,68.168 319.92,67.664 320.676,67.076 L320.718,67.076 L320.816,68 L321.754,68 L321.754,63.828 C321.754,62.134 320.858,61.028 318.996,61.028 C317.806,61.028 316.658,61.56 315.972,62.008 L316.42,62.792 C317.05,62.4 317.918,61.98 318.8,61.98 C320.116,61.98 320.578,62.764 320.606,63.688 C317.092,63.968 315.678,64.71 315.678,66.236 L315.678,66.236 Z M316.798,66.152 C316.798,65.256 317.694,64.682 320.606,64.444 L320.606,66.236 C319.836,66.88 319.066,67.244 318.296,67.244 C317.512,67.244 316.798,66.922 316.798,66.152 L316.798,66.152 Z M324.064,58.97 L326.388,58.97 L326.388,65.718 C326.388,67.328 327.172,68.168 328.614,68.168 C329.356,68.168 329.832,67.986 330.448,67.762 L330.154,66.894 C329.65,67.118 329.258,67.216 328.866,67.216 C328.054,67.216 327.536,66.796 327.536,65.802 L327.536,58.032 L324.064,58.032 L324.064,58.97 Z M332.282,64.612 C332.282,66.838 333.92,68.168 335.936,68.168 C337.028,68.168 337.882,67.804 338.554,67.37 L338.148,66.614 C337.518,67.006 336.874,67.244 336.076,67.244 C334.592,67.244 333.528,66.32 333.472,64.878 L338.792,64.878 C338.82,64.71 338.834,64.458 338.834,64.22 C338.834,62.302 337.686,61.028 335.74,61.028 C333.976,61.028 332.282,62.386 332.282,64.612 L332.282,64.612 Z M333.458,64.052 C333.64,62.722 334.648,61.938 335.754,61.938 C337.014,61.938 337.77,62.694 337.77,64.052 L333.458,64.052 Z M340.71,67.104 C341.536,67.678 342.712,68.168 344.042,68.168 C345.988,68.168 347.066,67.244 347.066,66.138 C347.066,65.102 346.184,64.57 344.35,64.108 C343.118,63.8 342.278,63.464 342.278,62.904 C342.278,62.372 342.684,61.924 343.958,61.924 C344.798,61.924 345.526,62.218 346.128,62.638 L346.688,61.896 C346.016,61.434 344.98,61.028 343.958,61.028 C342.082,61.028 341.102,61.868 341.102,62.96 C341.102,63.926 342.292,64.542 343.692,64.892 C345.358,65.298 345.904,65.676 345.904,66.208 C345.904,66.796 345.302,67.272 344.084,67.272 C342.866,67.272 342.026,66.908 341.27,66.348 L340.71,67.104 Z M356.18,58.256 C355.536,57.99 354.892,57.864 354.22,57.864 C352.344,57.864 351.476,58.956 351.476,60.622 L351.476,61.196 L349.53,61.266 L349.53,62.134 L351.476,62.134 L351.476,68 L352.61,68 L352.61,62.134 L355.466,62.134 L355.466,61.196 L352.61,61.196 L352.61,60.58 C352.61,59.474 353.114,58.802 354.332,58.802 C354.92,58.802 355.354,58.872 355.914,59.124 L356.18,58.256 Z M357.314,64.612 C357.314,66.866 358.882,68.168 360.674,68.168 C362.466,68.168 364.034,66.866 364.034,64.612 C364.034,62.33 362.466,61.028 360.674,61.028 C358.882,61.028 357.314,62.33 357.314,64.612 L357.314,64.612 Z M358.504,64.612 C358.504,63.044 359.372,61.98 360.674,61.98 C361.976,61.98 362.844,63.044 362.844,64.612 C362.844,66.166 361.976,67.216 360.674,67.216 C359.372,67.216 358.504,66.166 358.504,64.612 L358.504,64.612 Z M366.904,68 L368.052,68 L368.052,64.01 C368.864,62.596 369.83,62.064 370.852,62.064 C371.384,62.064 371.636,62.134 372.112,62.302 L372.378,61.308 C371.958,61.098 371.538,61.028 371.034,61.028 C369.774,61.028 368.71,61.714 367.996,62.806 L367.954,62.806 L367.856,61.196 L366.904,61.196 L366.904,68 Z M374.366,64.612 C374.366,66.866 375.962,68.168 378.09,68.168 C379.098,68.168 380.05,67.776 380.792,67.104 L380.288,66.362 C379.714,66.838 379.014,67.216 378.174,67.216 C376.606,67.216 375.556,66.166 375.556,64.612 C375.556,63.044 376.634,61.98 378.202,61.98 C378.916,61.98 379.504,62.274 380.064,62.764 L380.638,62.022 C380.078,61.476 379.266,61.028 378.16,61.028 C376.102,61.028 374.366,62.33 374.366,64.612 L374.366,64.612 Z M382.598,64.612 C382.598,66.838 384.236,68.168 386.252,68.168 C387.344,68.168 388.198,67.804 388.87,67.37 L388.464,66.614 C387.834,67.006 387.19,67.244 386.392,67.244 C384.908,67.244 383.844,66.32 383.788,64.878 L389.108,64.878 C389.136,64.71 389.15,64.458 389.15,64.22 C389.15,62.302 388.002,61.028 386.056,61.028 C384.292,61.028 382.598,62.386 382.598,64.612 L382.598,64.612 Z M383.774,64.052 C383.956,62.722 384.964,61.938 386.07,61.938 C387.33,61.938 388.086,62.694 388.086,64.052 L383.774,64.052 Z M399.51,64.528 C399.51,67.16 400.812,68.168 402.618,68.168 C404.41,68.168 405.698,67.16 405.698,64.528 L405.698,58.816 L404.564,58.816 L404.564,64.556 C404.564,66.46 403.724,67.146 402.618,67.146 C401.512,67.146 400.686,66.46 400.686,64.556 L400.686,58.816 L399.51,58.816 L399.51,64.528 Z M407.546,68 L408.778,68 L410.15,65.522 C410.388,65.074 410.626,64.612 410.892,64.052 L410.948,64.052 C411.256,64.612 411.508,65.074 411.76,65.522 L413.146,68 L414.434,68 L411.69,63.31 L414.252,58.816 L413.02,58.816 L411.76,61.168 C411.536,61.588 411.354,61.966 411.102,62.498 L411.046,62.498 C410.752,61.966 410.542,61.588 410.304,61.168 L409.016,58.816 L407.728,58.816 L410.29,63.254 L407.546,68 Z" id="by-Salesforce-UX" fill="#16325C"></path>
    </g>
</svg>