<?xml version="1.0" encoding="UTF-8" standalone="no"?>
<svg width="150px" height="296px" viewBox="0 0 150 296" version="1.1" xmlns="http://www.w3.org/2000/svg" xmlns:xlink="http://www.w3.org/1999/xlink">
    <!-- Generator: Sketch 44.1 (41455) - http://www.bohemiancoding.com/sketch -->
    <title>accessible-lanthern</title>
    <desc>Created with Sketch.</desc>
    <defs>
        <circle id="path-1" cx="39.5758294" cy="250.4" r="13"></circle>
    </defs>
    <g id="Page-1" stroke="none" stroke-width="1" fill="none" fill-rule="evenodd">
        <g id="slds-homepage-colors" transform="translate(-377.000000, -2253.000000)">
            <g id="Group-Copy-2" transform="translate(-284.000000, 2169.000000)">
                <g id="accessible-lanthern" transform="translate(660.424171, 83.600000)">
                    <path d="M51.5758294,52.4 L99.5758294,52.4 L99.5758294,14.4 C99.5758294,8.8771525 95.0986769,4.4 89.5758294,4.4 L61.5758294,4.4 C56.0529819,4.4 51.5758294,8.8771525 51.5758294,14.4 L51.5758294,52.4 Z" id="Rectangle-11" stroke="#611613" stroke-width="8"></path>
                    <path d="M29.5140706,39.4 L121.661139,39.4 L121.661139,39.4 C127.003322,39.4 131.764832,42.7688398 133.542818,47.8064665 L136.575829,56.4 L14.5758294,56.4 L17.6426213,47.7775967 L17.6426213,47.7775967 C19.429081,42.7548965 24.1831275,39.4 29.5140706,39.4 Z" id="Rectangle-12" fill="#86261B"></path>
                    <rect id="Rectangle-13" fill="#B22B19" x="0.575829384" y="55.4" width="150" height="20"></rect>
                    <rect id="Rectangle-13" fill="#611613" x="2.57582938" y="276.4" width="148" height="20"></rect>
                    <rect id="Rectangle-13" fill="#B22B19" x="39.5758294" y="203.4" width="72" height="20"></rect>
                    <path d="M39.5758294,222.4 L111.575829,222.4 L111.575829,222.4 C127.039802,222.4 139.575829,234.936027 139.575829,250.4 L139.575829,276.4 L11.5758294,276.4 L11.5758294,250.4 L11.5758294,250.4 C11.5758294,234.936027 24.1118564,222.4 39.5758294,222.4 Z" id="Rectangle-15" fill="#86261B"></path>
                    <g id="Oval-3">
                        <use fill="#86261B" fill-rule="evenodd" xlink:href="#path-1"></use>
                        <circle stroke="#FFFFFF" stroke-width="7" cx="39.5758294" cy="250.4" r="9.5"></circle>
                    </g>
                    <path d="M19.5758294,75.4 L131.575829,75.4 L131.575829,183.4 L131.575829,183.4 C131.575829,194.445695 122.621524,203.4 111.575829,203.4 L39.5758294,203.4 L39.5758294,203.4 C28.5301344,203.4 19.5758294,194.445695 19.5758294,183.4 L19.5758294,75.4 Z" id="Rectangle-14" fill="#D94F22"></path>
                    <rect id="Rectangle-13" fill-opacity="0.5" fill="#611613" x="19.5758294" y="75.4" width="112" height="8"></rect>
                    <path d="M75.5758294,199.671139 C89.9352329,199.671139 101.575829,188.139317 101.575829,173.914093 C101.575829,164.43061 92.9091627,147.259246 75.5758294,122.4 C58.2424961,147.259246 49.5758294,164.43061 49.5758294,173.914093 C49.5758294,188.139317 61.2164259,199.671139 75.5758294,199.671139 Z" id="Oval-4" fill="#FF9A3C"></path>
                    <path d="M75.5758294,199.4 C82.2032464,199.4 87.5758294,193.430463 87.5758294,186.066667 C87.5758294,181.157469 83.5758294,172.26858 75.5758294,159.4 C67.5758294,172.26858 63.5758294,181.157469 63.5758294,186.066667 C63.5758294,193.430463 68.9484124,199.4 75.5758294,199.4 Z" id="Oval-4" fill="#FFB75D"></path>
                </g>
            </g>
        </g>
    </g>
</svg>