<?xml version="1.0" encoding="UTF-8" standalone="no"?>
<svg width="1586px" height="660px" viewBox="0 0 1586 660" version="1.1" xmlns="http://www.w3.org/2000/svg" xmlns:xlink="http://www.w3.org/1999/xlink">
    <!-- Generator: Sketch 44.1 (41455) - http://www.bohemiancoding.com/sketch -->
    <title>Group 2</title>
    <desc>Created with Sketch.</desc>
    <defs></defs>
    <g id="Page-1" stroke="none" stroke-width="1" fill="none" fill-rule="evenodd">
        <g id="slds-homepage-colors" transform="translate(-45.000000, -542.000000)">
            <g id="header" transform="translate(45.000000, -7.000000)">
                <g id="Group-2" transform="translate(0.000000, 549.000000)">
                    <g id="wireframes-blue" opacity="0.5" transform="translate(3.000000, 4.000000)" stroke="#1AA2DC" stroke-linecap="square">
                        <path d="M670.5,528.5 L790.5,346.5" id="Line"></path>
                        <path d="M670.5,528.5 L354.5,466.5" id="Line"></path>
                        <path d="M355.5,465.5 L65.5,652.5" id="Line"></path>
                        <path d="M65.5,652.5 L0.5,401.5" id="Line"></path>
                        <path d="M503.5,181.5 L790.5,345.5" id="Line"></path>
                        <path d="M741.5,115.5 L504.5,181.5" id="Line"></path>
                        <path d="M1056.5,0.5 L790.5,345.5" id="Line"></path>
                        <path d="M741.5,115.5 L790.5,345.5" id="Line"></path>
                        <path d="M221.5,83.5 L0.5,401.5" id="Line"></path>
                        <path d="M504.5,181.5 L0.5,401.5" id="Line"></path>
                        <path d="M504.5,182.5 L354.5,465.5" id="Line"></path>
                        <path d="M354.5,465.5 L0.5,401.5" id="Line"></path>
                        <path d="M354.5,465.5 L790.5,345.5" id="Line"></path>
                        <path d="M790.5,345.5 L1354.5,363.5" id="Line"></path>
                        <path d="M1313.5,55.5 L790.5,345.5" id="Line"></path>
                        <path d="M741.5,115.5 L931.5,162.5" id="Line"></path>
                        <path d="M1056.5,0.5 L1354.5,363.5" id="Line"></path>
                        <path d="M1313.5,55.5 L1354.5,363.5" id="Line"></path>
                        <path d="M503.5,181.5 L221.5,83.5" id="Line"></path>
                        <path d="M1314.5,55.5 L1561.5,187.5" id="Line"></path>
                        <path d="M1314.5,55.5 L1056.5,0.5" id="Line"></path>
                        <path d="M1354.5,363.5 L1561.5,187.5" id="Line"></path>
                        <path d="M1561.5,187.5 L1579.5,7.5" id="Line"></path>
                        <path d="M1561.5,187.5 L1563.5,479.5" id="Line"></path>
                        <path d="M1354.5,363.5 L1563.5,480.5" id="Line"></path>
                        <path d="M1263.5,551.5 L1563.5,480.5" id="Line"></path>
                        <path d="M1354.5,364.5 L1263.5,552.5" id="Line"></path>
                        <path d="M790.5,346.5 L1263.5,552.5" id="Line"></path>
                        <path d="M1313.5,55.5 L1579.5,7.5" id="Line"></path>
                    </g>
                    <g id="circles" fill="#1AA2DC">
                        <circle id="Oval-2" cx="225" cy="89" r="6"></circle>
                        <circle id="Oval-2" cx="359" cy="469" r="6"></circle>
                        <circle id="Oval-2" cx="69" cy="656" r="4"></circle>
                        <circle id="Oval-2" cx="4" cy="405" r="4"></circle>
                        <circle id="Oval-2" cx="507" cy="186" r="3"></circle>
                        <circle id="Oval-2" cx="794" cy="349" r="3"></circle>
                        <circle id="Oval-2" cx="1266" cy="555" r="3"></circle>
                        <circle id="Oval-2" cx="745" cy="120" r="2"></circle>
                        <circle id="Oval-2" cx="674" cy="532" r="2"></circle>
                        <circle id="Oval-2" cx="934" cy="166" r="3"></circle>
                        <circle id="Oval-2" cx="1060" cy="4" r="4"></circle>
                        <circle id="Oval-2" cx="1171" cy="140" r="5"></circle>
                        <circle id="Oval-2" cx="1358" cy="367" r="5"></circle>
                        <circle id="Oval-2" cx="1566" cy="483" r="5"></circle>
                        <circle id="Oval-2" cx="1316" cy="59" r="4"></circle>
                        <circle id="Oval-2" cx="1563" cy="191" r="4"></circle>
                        <circle id="Oval-2" cx="1582" cy="12" r="4"></circle>
                    </g>
                </g>
            </g>
        </g>
    </g>
</svg>