<?xml version="1.0" encoding="UTF-8" standalone="no"?>
<svg width="309px" height="90px" viewBox="0 0 309 90" version="1.1" xmlns="http://www.w3.org/2000/svg" xmlns:xlink="http://www.w3.org/1999/xlink">
    <!-- Generator: Sketch 44.1 (41455) - http://www.bohemiancoding.com/sketch -->
    <title>cloud</title>
    <desc>Created with Sketch.</desc>
    <defs>
        <linearGradient x1="60.2678239%" y1="-9.93597872%" x2="60.2678239%" y2="38.5801205%" id="linearGradient-1">
            <stop stop-color="#FDFDFD" offset="0%"></stop>
            <stop stop-color="#FAFDFD" stop-opacity="0" offset="100%"></stop>
        </linearGradient>
    </defs>
    <g id="Page-1" stroke="none" stroke-width="1" fill="none" fill-rule="evenodd" opacity="0.600000024">
        <g id="slds-homepage-colors" transform="translate(-317.000000, -96.000000)" fill="url(#linearGradient-1)">
            <g id="header" transform="translate(140.000000, -7.000000)">
                <path d="M293.132826,128.332976 C303.838789,117.184181 318.742861,110.265383 335.227332,110.265383 C357.137166,110.265383 376.255944,122.479743 386.43357,140.613704 C395.284361,136.661158 405.076569,134.461818 415.378672,134.461818 C454.899727,134.461818 486.93924,166.771663 486.93924,206.628952 C486.93924,246.486241 454.899727,278.796086 415.378672,278.796086 C410.554488,278.796086 405.840029,278.312158 401.281397,277.392232 C392.318115,293.375706 375.231543,304.176994 355.624076,304.176994 C347.416879,304.176994 339.652267,302.282759 332.73871,298.910928 C323.651873,320.283063 302.475072,335.268261 277.8,335.268261 C252.099604,335.268261 230.195302,319.012866 221.791707,296.213833 C218.116402,296.990884 214.3074,297.400149 210.403425,297.400149 C179.805082,297.400149 155,272.344626 155,241.437713 C155,220.721878 166.143016,202.637693 182.704018,192.961884 C179.294264,185.116708 177.400366,176.463142 177.400366,167.365282 C177.400366,131.817263 206.265249,103 241.871265,103 C262.776061,103 281.353594,112.935747 293.132826,128.332976" id="cloud"></path>
            </g>
        </g>
    </g>
</svg>