<?xml version="1.0" encoding="UTF-8" standalone="no"?>
<svg width="343px" height="146px" viewBox="0 0 343 146" version="1.1" xmlns="http://www.w3.org/2000/svg" xmlns:xlink="http://www.w3.org/1999/xlink">
    <!-- Generator: Sketch 44.1 (41455) - http://www.bohemiancoding.com/sketch -->
    <title>cloud</title>
    <desc>Created with Sketch.</desc>
    <defs>
        <linearGradient x1="46.2742981%" y1="-20.591348%" x2="52.681223%" y2="33.3165552%" id="linearGradient-1">
            <stop stop-color="#FDFDFD" offset="0%"></stop>
            <stop stop-color="#FCFEFE" stop-opacity="0" offset="100%"></stop>
        </linearGradient>
    </defs>
    <g id="Page-1" stroke="none" stroke-width="1" fill="none" fill-rule="evenodd">
        <g id="slds-homepage-colors" transform="translate(-1342.000000, -527.000000)" fill="url(#linearGradient-1)">
            <g id="header" transform="translate(140.000000, -7.000000)">
                <path d="M1379.67231,569.335286 C1394.60534,553.784571 1415.39404,544.134 1438.38714,544.134 C1468.94771,544.134 1495.61522,561.171 1509.81132,586.464857 C1522.1567,580.951714 1535.8152,577.884 1550.18492,577.884 C1605.31021,577.884 1650,622.950857 1650,678.545143 C1650,734.139429 1605.31021,779.206286 1550.18492,779.206286 C1543.45598,779.206286 1536.8801,778.531286 1530.52156,777.248143 C1518.01928,799.542429 1494.18635,814.608429 1466.8372,814.608429 C1455.38952,814.608429 1444.55918,811.966286 1434.91592,807.263143 C1422.2413,837.073714 1392.70318,857.975571 1358.28556,857.975571 C1322.43779,857.975571 1291.88493,835.302 1280.16332,803.501143 C1275.03688,804.585 1269.72395,805.155857 1264.27856,805.155857 C1221.59896,805.155857 1187,770.207571 1187,727.097571 C1187,698.202429 1202.54265,672.978 1225.64249,659.481857 C1220.88646,648.539143 1218.24478,636.468857 1218.24478,623.778857 C1218.24478,574.195286 1258.50649,534 1308.17096,534 C1337.32967,534 1363.24224,547.858714 1379.67231,569.335286" id="cloud"></path>
            </g>
        </g>
    </g>
</svg>