<?xml version="1.0" encoding="UTF-8" standalone="no"?>
<svg width="309px" height="90px" viewBox="0 0 309 90" version="1.1" xmlns="http://www.w3.org/2000/svg" xmlns:xlink="http://www.w3.org/1999/xlink">
    <!-- Generator: Sketch 44.1 (41455) - http://www.bohemiancoding.com/sketch -->
    <title>cloud</title>
    <desc>Created with Sketch.</desc>
    <defs>
        <linearGradient x1="60.2678239%" y1="-9.93597872%" x2="60.2678239%" y2="38.5801205%" id="linearGradient-1">
            <stop stop-color="#FDFDFD" offset="0%"></stop>
            <stop stop-color="#FAFDFD" stop-opacity="0" offset="100%"></stop>
        </linearGradient>
    </defs>
    <g id="Page-1" stroke="none" stroke-width="1" fill="none" fill-rule="evenodd" opacity="0.5">
        <g id="slds-homepage-colors" transform="translate(-1281.000000, -112.000000)" fill="url(#linearGradient-1)">
            <g id="header" transform="translate(140.000000, -7.000000)">
                <path d="M1278.13283,144.332976 C1288.83879,133.184181 1303.74286,126.265383 1320.22733,126.265383 C1342.13717,126.265383 1361.25594,138.479743 1371.43357,156.613704 C1380.28436,152.661158 1390.07657,150.461818 1400.37867,150.461818 C1439.89973,150.461818 1471.93924,182.771663 1471.93924,222.628952 C1471.93924,262.486241 1439.89973,294.796086 1400.37867,294.796086 C1395.55449,294.796086 1390.84003,294.312158 1386.2814,293.392232 C1377.31812,309.375706 1360.23154,320.176994 1340.62408,320.176994 C1332.41688,320.176994 1324.65227,318.282759 1317.73871,314.910928 C1308.65187,336.283063 1287.47507,351.268261 1262.8,351.268261 C1237.0996,351.268261 1215.1953,335.012866 1206.79171,312.213833 C1203.1164,312.990884 1199.3074,313.400149 1195.40343,313.400149 C1164.80508,313.400149 1140,288.344626 1140,257.437713 C1140,236.721878 1151.14302,218.637693 1167.70402,208.961884 C1164.29426,201.116708 1162.40037,192.463142 1162.40037,183.365282 C1162.40037,147.817263 1191.26525,119 1226.87127,119 C1247.77606,119 1266.35359,128.935747 1278.13283,144.332976" id="cloud" transform="translate(1305.969620, 235.134131) scale(-1, 1) translate(-1305.969620, -235.134131) "></path>
            </g>
        </g>
    </g>
</svg>