<?xml version="1.0" encoding="UTF-8" standalone="no"?>
<svg width="130px" height="188px" viewBox="0 0 130 188" version="1.1" xmlns="http://www.w3.org/2000/svg" xmlns:xlink="http://www.w3.org/1999/xlink">
    <!-- Generator: Sketch 44.1 (41455) - http://www.bohemiancoding.com/sketch -->
    <title>hot air balloon</title>
    <desc>Created with Sketch.</desc>
    <defs></defs>
    <g id="Page-1" stroke="none" stroke-width="1" fill="none" fill-rule="evenodd">
        <g id="slds-homepage-colors" transform="translate(-905.000000, -77.000000)">
            <g id="header" transform="translate(140.000000, -7.000000)">
                <g id="hot-air-balloon" transform="translate(765.000000, 84.000000)">
                    <path d="M130,66.1305755 C130,88.0904776 112.376964,118.257256 77.1308917,156.630911 C73.2958969,160.806206 57.0284045,161.148661 53.3309895,157.133151 C17.7769965,118.520385 29.1005,0 65,0 C100.8995,0 130,29.6066586 130,66.1305755 Z" id="Stroke-2" fill="#611613"></path>
                    <path d="M77.1308917,156.630911 C79.9489371,162.161885 57.0284045,161.148661 53.3309895,157.133151 C17.7769965,118.520385 0,88.1861933 0,66.1305755 C0,29.6066586 29.1005,0 65,0 C68.290625,40.9389682 56.7480469,116.625525 77.1308917,156.630911 Z" id="Stroke-2" fill="#D94F22"></path>
                    <path d="M104,60.9167823 C104,87.3533443 93.075166,121.242309 75.5588315,152.156091 C72.3357512,157.844359 58.685799,159.508823 55.8544287,154.622354 C37.3959207,122.766074 26,88.0550209 26,60.9167823 C26,29.6157803 39,9.31018621 65,0 C91,9.31018621 104,29.6157803 104,60.9167823 Z" id="Stroke-2" fill="#86261B"></path>
                    <path d="M65,152.156091 C60.7905327,157.057912 57.7420089,157.88 55.8544287,154.622354 C37.3959207,122.766074 26,88.0550209 26,60.9167823 C26,29.6157803 39,9.31018621 65,-2.84217094e-14 L65,152.156091 Z" id="Stroke-2" fill="#B22B19"></path>
                    <path d="M55,159 C55,170.893452 55,176.976211 55,177.248276 C55,176.976211 55,170.893452 55,159 Z" id="Path-8" stroke="#611613" stroke-width="2" stroke-linecap="round" stroke-linejoin="round"></path>
                    <path d="M75,159 C75,170.893452 75,176.976211 75,177.248276 C75,176.976211 75,170.893452 75,159 Z" id="Path-8" stroke="#611613" stroke-width="2" stroke-linecap="round" stroke-linejoin="round"></path>
                    <path d="M46.3,148 L83.7,148 L83.7,148 C84.4179702,148 85,148.58203 85,149.3 L85,155 L85,155 C85,158.865993 81.8659932,162 78,162 L52,162 L52,162 C48.1340068,162 45,158.865993 45,155 L45,149.3 L45,149.3 C45,148.58203 45.5820298,148 46.3,148 Z" id="Rectangle" fill="#611613"></path>
                    <rect id="Rectangle-75" fill="#86261B" x="52" y="168" width="26" height="20" rx="1.3"></rect>
                    <rect id="Rectangle-75" fill="#D94F22" x="52" y="168" width="26" height="6"></rect>
                    <path d="M49,169 L81,169" id="Path-11" stroke="#611613" stroke-width="2" stroke-linecap="round"></path>
                    <g id="lightning-logo" transform="translate(30.000000, 37.000000)">
                        <g id="Group-7" transform="translate(5.625067, 3.208693)"></g>
                        <path d="M26.4431054,71.978524 C27.7744156,72.1567138 29.1333654,72.2481229 30.5124691,72.2481229 C47.342141,72.2481229 60.9834634,58.5413905 60.9834634,41.6347621 C60.9834634,37.9731924 60.3431446,34.4608856 59.1701867,31.2060284" id="Stroke-1" stroke="#FFFFFF" stroke-width="2" opacity="0.5"></path>
                        <path d="M21.27305,12.4528789 C20.6425204,12.6542103 20.0212039,12.875212 19.4096765,13.115884 C8.07223471,17.5752581 0.0423385524,28.6629471 0.0423385524,41.6343571 C0.0423385524,51.9699461 5.13955195,61.108539 12.9460276,66.6526728" id="Stroke-3" stroke="#FFFFFF" stroke-width="2" opacity="0.5"></path>
                        <polygon id="Fill-5" fill="#FFFFFF" points="53.4805057 28.0948802 12.9924391 80.9784991 32.2998912 31.85538 19.2165444 32.1475419 31.8173488 0.101719935 54.6563428 0.101719935 39.1234315 27.8461087"></polygon>
                    </g>
                </g>
            </g>
        </g>
    </g>
</svg>