<?xml version="1.0" encoding="UTF-8" standalone="no"?>
<svg width="117px" height="103px" viewBox="0 0 117 103" version="1.1" xmlns="http://www.w3.org/2000/svg" xmlns:xlink="http://www.w3.org/1999/xlink">
    <!-- Generator: Sketch 44.1 (41455) - http://www.bohemiancoding.com/sketch -->
    <title>characters</title>
    <desc>Created with Sketch.</desc>
    <defs></defs>
    <g id="Page-1" stroke="none" stroke-width="1" fill="none" fill-rule="evenodd">
        <g id="slds-homepage-colors" transform="translate(-1272.000000, -557.000000)">
            <g id="header" transform="translate(140.000000, -7.000000)">
                <g id="characters" transform="translate(1132.000000, 564.000000)">
                    <path d="M23.1549665,91.2251252 C23.347232,91.3758627 23.5482367,91.5724768 23.993943,91.6948145 C24.9793033,91.9635206 25.0929147,91.5637384 25.2720711,91.4086317 C25.3092133,91.3758627 25.379128,91.319063 25.3856825,91.2513404 C25.3900522,91.2447866 25.6478626,90.8602967 26.2880191,90.6920823 C26.5611234,90.7117437 26.8320429,90.7314051 27.054896,90.7576204 C27.3935454,90.7969432 27.7037918,90.8297122 28.0118535,90.8624813 C28.5427683,91.0154034 28.9338536,91.1290027 29.3074603,91.264448 C29.3074603,91.264448 30.9985222,91.7319528 31.7020389,91.1530333 C31.8746408,91.1726947 31.9751432,91.1923561 32.1280816,91.2120175 C32.4820248,91.8346291 33.0347879,92.5337016 33.851916,93.3157891 C38.496874,97.7701922 49.1981931,100.407007 49.1981931,100.407007 C56.9740189,103.690463 55.2960661,101.311432 53.9414687,99.8914405 C55.6259761,99.2338754 56.2673401,98.9493163 55.9592785,97.4812639 C58.0152077,97.3720338 61.2415383,97.350542 53.786216,93.8462481 C53.4453819,93.5600653 52.5498524,93.4834372 52.1281794,93.1907005 C44.0027801,87.5675355 37.1597553,86.6440152 34.1162809,87.11152 C33.9633425,87.1355506 33.7951103,87.177058 33.6290629,87.2273039 C32.5781575,86.4517702 31.0706217,85.5757449 29.654849,84.8985183 C28.8661238,84.5205822 28.1123559,84.2059996 27.5027871,84.0072008 C27.3738818,83.9482165 27.2231283,83.8892323 27.0898534,83.8302481 C28.1210952,83.9067091 29.3948537,83.9613242 29.9410623,83.6358185 C29.0125077,83.3955123 28.4247872,83.2251134 28.5143654,83.1115141 C28.6039436,82.9979148 29.4647684,82.5129332 33.5919207,84.0421544 C27.1422894,80.2147321 22.4732982,81.0230347 21.8637294,80.7412211 C21.2519757,80.4615921 22.4601892,80.4506691 23.0479096,80.3064853 C23.0479096,80.3064853 20.0109898,79.5549823 18.0315298,80.4179 C16.0629939,79.5069211 15.5125986,79.360672 14.8768118,79.393441 C13.9264088,79.4393176 13.3503883,78.5758218 13.2629949,79.2945558 C13.2345921,79.5370466 12.9226087,79.7985381 13.0911213,80.1040838 C13.7373921,81.2758967 15.7785882,82.2236703 16.032029,82.3285312 C17.1811121,82.7239886 18.1647595,82.9757985 18.3067737,83.0697364 C18.6255917,83.2099858 18.8235185,83.4343929 18.7191977,83.6051261 C18.6444722,83.7884652 18.5092246,84.0420535 16.9280971,83.4058118 C16.2509017,83.115371 15.9669292,82.9810006 15.5629635,82.7607357 C14.1552013,81.9931442 12.0141409,80.5990539 11.1555009,80.1992718 C11.0185846,80.1366465 10.3431928,80.4554613 9.12932533,81.155716 C8.79941533,81.5030677 4.55707028,80.5505901 4.74278121,80.9853259 C4.90664379,81.4921535 5.82436877,82.5344521 9.0501709,83.8405329 C10.2975832,84.3455922 11.7779089,84.5887828 12.9012079,84.8846545 C13.6317329,85.0770714 14.9469964,86.1124119 17.3149041,87.2447807 C18.531456,87.826554 19.8711604,88.1841594 20.9242506,88.5577264 C19.1064683,88.9924621 19.3336911,89.9755329 20.2884637,90.5304218 C20.9788714,90.9302039 21.7807057,91.1617717 22.4580043,91.0481724 C22.6240518,91.0197726 22.9911039,91.094049 23.1549665,91.2251252 Z" id="Fill-1" fill="#3D140A" opacity="0.300000012"></path>
                    <path d="M86.5905578,100.909961 C89.5421394,101.779248 94.3586793,102.985645 97.7060888,103.163669 C99.9782929,103.557594 103.713918,104.409836 104.646397,105.165491 C105.065061,105.502601 105.466598,105.788575 105.862426,106.053717 C106.071758,106.424916 106.469489,106.866188 107.167897,107.364277 C107.537082,107.629419 107.862499,107.803655 108.166981,107.93812 C108.675087,108.563098 109.531446,108.796044 109.856862,108.19758 C110.157539,108.135083 110.370677,108.032814 110.503888,108.000618 C110.835013,107.953271 111.019606,107.974103 111.200393,107.987361 C111.622863,108.394543 112.267986,108.869905 112.886467,108.752485 C113.527785,108.633171 113.107218,108.087736 112.901692,107.864259 C113.752341,107.502529 114.151975,106.54423 113.756147,105.398438 C114.011151,105.407907 114.825643,105.47798 114.530675,104.854896 C114.241417,104.248857 113.050127,103.987503 112.793219,103.938262 C111.889286,102.955343 110.6371,102.063329 109.959625,101.629632 C108.952928,100.985716 104.973716,98.5634537 103.510295,97.1790333 C103.118273,96.8078344 102.71864,96.4631497 102.320909,96.133616 C101.881311,95.3817488 100.874615,93.7776393 99.3369757,92.0352771 C97.2227221,89.6414229 93.5898598,88.5183569 92.8990641,88.6300953 C92.7144713,88.6603973 92.2672619,88.7323644 91.8048284,88.9084945 C87.3955346,86.0676865 81.1174766,82.215551 75.0049811,78.8293079 C71.8688066,77.0926273 68.1426964,75.7972189 67.5223124,75.4979871 C63.7619478,73.6722946 62.5649492,72.498094 61.0920129,72.4469594 C58.6409251,72.3636291 52.8988325,71.5435351 54.1526429,74.6566009 C55.4064532,77.7696668 62.4774104,79.0546787 62.4774104,79.0546787 C64.1349395,79.6171587 64.4831919,80.6265924 63.5868701,81.0565013 C59.3431389,83.0905198 44.1504804,72.5933524 42.7289256,73.2902973 C40.7759012,74.2476113 28.6439623,69.277484 37.7678363,76.5028394 C45.9859839,83.0109342 56.6046953,86.6169094 60.3060663,87.9236811 C63.2785811,88.9728861 72.1485504,94.107173 77.4884203,95.6942377 C78.0859681,95.8703678 78.6169102,96.0483918 79.1573675,96.2264157 C78.9537445,96.2567177 78.7577336,96.2889135 78.5997831,96.3230032 C75.9717145,96.8816954 76.9784113,99.2850189 77.7072674,99.9365109 C78.7520246,100.87019 80.7368729,100.845569 82.3106691,100.516036 C83.6389761,100.237637 85.4392316,100.570958 86.5905578,100.909961 Z" id="Fill-1" fill="#3D140A" opacity="0.300000012" transform="translate(74.500670, 90.529481) rotate(-9.000000) translate(-74.500670, -90.529481) "></path>
                    <path d="M31.2582331,39.22453 C33.0969494,37.8948045 34.2049778,35.6929864 34.6695645,34.2078385 C35.8670203,30.4129402 38.2292146,24.3341952 41.1497854,20.4853308 C42.6067991,17.7179476 44.6025588,13.0509566 44.0463635,11.5766019 C43.7998926,10.9182151 43.6363057,10.3051599 43.5076174,9.71153246 C42.9906829,9.2646929 42.523915,8.56960913 42.2360022,7.50539704 C42.0811399,6.93983199 42.0636907,6.47788191 42.0985892,6.05910473 C42.0767776,6.03751828 42.054966,6.0288837 42.0331545,6.00082131 C41.3853505,5.13736322 41.7670532,4.04508874 43.2458784,4.019185 C43.6602985,3.71913331 44.068175,3.53780711 44.260117,3.40612975 C44.3386386,3.35432227 44.4367908,3.31546665 44.5436675,3.28308697 C44.6788993,3.06290516 44.8163123,2.84488199 44.964631,2.63549341 C44.5894718,1.93177506 44.2993778,0.938798257 45.1260367,0.312791142 C45.9875942,-0.336961071 46.6353982,0.446627146 46.866601,0.800644963 C48.4021363,0.0537537146 50.6552727,0.15089275 52.4896267,1.24532588 C52.507076,1.25611911 52.5201629,1.26475369 52.5354311,1.27338827 C52.7230107,0.956067419 53.3817204,0.00626351961 54.299988,0.688395411 C55.196444,1.35541679 54.5377343,2.8405647 54.3850532,3.15572691 C55.4101975,4.72506198 55.9184074,6.63546301 56.0994435,7.63923304 C56.367726,9.13301554 57.1856603,14.9635163 58.4420074,17.3919922 C58.7779057,18.0417444 59.057094,18.682862 59.3101083,19.3153451 C60.3417961,20.2349279 62.4706065,22.2748477 64.3507649,24.9861061 C66.9354373,28.7140864 65.5678511,33.4220916 64.6757574,34.1301273 C64.43583,34.3222467 63.8600043,34.7777208 63.0660627,35.196498 C64.2766055,41.7501449 65.6223801,50.96756 66.2243797,59.7338183 C66.5362854,64.2324349 65.4086266,69.1411942 65.386815,70.0046523 C65.2559455,75.2544775 66.3705173,77.2620175 65.0247427,78.9392849 C62.7955991,81.7304132 52.6117716,79.9560068 51.5386418,77.5318482 C50.4393381,75.0515648 53.5540319,73.6290176 53.5540319,73.6290176 C54.0818722,71.4552619 52.4612717,70.4903475 50.7512437,71.2501906 C42.6547845,74.8443349 46.5590577,80.137333 43.8129795,81.3332224 C39.6338805,83.155119 29.698705,80.4697643 29.8382991,78.2722635 C30.1611105,73.085039 33.1362103,75.9063883 34.2137024,71.0192155 C35.0818034,67.0947985 33.7731085,54.2443835 35.9106435,47.3647811 C36.1483897,46.5941448 36.3207012,45.9012197 36.5039185,45.193184 C36.2465418,45.4025726 35.9935275,45.6054853 35.7710494,45.765225 C32.1219717,48.387979 28.4401767,45.8925851 27.8861626,44.7074889 C27.092221,43.0086351 29.0770749,40.800341 31.2582331,39.22453" id="Fill-1" fill="#473425"></path>
                    <path d="M0.677304957,70.3962305 C0.856159927,70.2818223 0.969580152,69.9947225 0.821261397,69.8436173 C0.648949901,69.6644498 0.389392079,69.4701717 0.461370298,69.1139953 C0.620594845,68.3282484 1.52577549,68.3455176 1.97509407,68.2570131 C2.06888387,68.2375853 2.23901421,68.203047 2.38078949,68.2159988 C2.3960576,68.2138402 3.37321646,68.1231771 4.18024498,67.7000826 C4.33946953,67.49717 4.49433176,67.296416 4.60338967,67.125883 C4.76479537,66.8711629 4.92183876,66.6358705 5.07888215,66.4027369 C5.15086037,65.9796424 5.19884585,65.6666388 5.18794006,65.3601112 C5.18794006,65.3601112 5.44967904,64.0066407 7.15098241,63.6461469 C7.17497515,63.6180845 7.19460557,63.5921808 7.21641715,63.566277 C7.23386642,63.5144695 7.26876495,63.4345997 7.33856201,63.3201915 C6.31559883,62.9035729 5.27736754,62.3207387 4.26312899,61.5285159 C-1.53220827,57.0083128 0.790725182,48.5464235 0.790725182,48.5464235 C-0.330390118,42.0489014 3.3448614,43.8772739 5.28172986,45.2285858 C7.85113418,44.1708497 10.9156614,43.8319424 13.709725,44.4320457 C15.4175719,42.964167 19.2564103,40.3500476 18.7198453,46.9706125 C19.0622872,47.2922507 19.3807363,47.6419512 19.6773738,48.0240314 C25.3549285,55.376377 20.3644386,60.8312735 17.1995781,62.9251594 C17.0403536,63.0287744 16.8353247,63.1388653 16.6106654,63.2467975 C17.446049,64.211712 18.1549254,65.5328028 18.5235411,66.7351682 C18.7263888,67.4065069 18.8289033,68.0346726 18.7961859,68.531161 C18.8223598,68.6390933 18.8354467,68.7642947 18.8616206,68.8743856 C19.4505333,68.1059079 20.2619242,67.1647386 21.3241482,66.8517351 C21.1496556,67.5899917 21.073315,68.0584177 21.3699525,68.0217208 C21.6687712,67.9871825 23.2850094,67.4863768 23.127966,64.0908278 C26.3299062,69.7637475 21.293612,72.9542251 21.4288438,73.4679827 C21.5640756,73.9860575 22.4561693,73.1096476 23.1781327,72.7189328 C23.1781327,72.7189328 22.5281475,75.1215049 19.321845,76.3389808 C19.7689824,78.0032963 20.2052141,79.9352838 19.6795549,80.3885993 C18.8965192,81.0707312 17.7165126,81.3491964 16.1722526,81.2283123 C15.6574993,81.187298 15.1034851,81.1009522 14.5080289,80.9735921 C13.1535297,80.6778577 12.5406242,79.611487 12.6518633,78.7221252 C12.6714937,78.5731786 12.7107546,78.4307081 12.7674647,78.2968721 C12.826356,78.163036 12.9026965,78.0378346 13.0008486,77.9277437 C13.1731601,77.7377829 13.2036963,77.5111252 13.1731601,77.299578 C13.1426239,77.0880307 13.0466529,76.891594 12.9572255,76.7620753 C12.6126025,76.2547937 12.2941534,76.1403855 12.0258709,76.2094621 C11.9364434,76.2332072 11.8535594,76.2763801 11.7772189,76.3303463 C11.4696756,76.5526867 11.2646467,76.9757812 11.2210236,77.1052999 C11.1730381,77.2348186 11.1555888,77.4010343 11.1534077,77.5909951 C11.1512265,78.1587188 11.323538,78.9487829 11.5198422,79.6762464 C11.5656465,79.8510966 11.5918204,80.0086777 11.5961828,80.1533069 C11.6441682,81.1980912 10.6800963,81.6837864 8.24592381,81.8802231 L8.24374265,81.8802231 C7.28839537,82.0291696 6.35485968,81.862954 5.59363547,81.6147098 C4.67100557,81.3686242 3.91414368,80.9627989 3.79417998,80.4123444 C3.57606417,79.4172089 3.88142631,78.6400966 4.84113591,77.6902927 C5.23810669,77.2974193 4.80623738,75.7604639 4.77352,75.1128703 C4.71899105,73.9817402 4.69281715,73.0125085 4.68627368,72.1490504 C2.47894161,73.3622091 0.622776003,72.9434319 0.175638578,72.1080362 C-0.151535148,71.5014569 -0.0424772392,70.8603392 0.677304957,70.3962305" id="Fill-4" fill="#473425"></path>
                </g>
            </g>
        </g>
    </g>
</svg>