<?xml version="1.0" encoding="UTF-8" standalone="no"?>
<svg width="32px" height="48px" viewBox="0 0 32 48" version="1.1" xmlns="http://www.w3.org/2000/svg" xmlns:xlink="http://www.w3.org/1999/xlink">
    <!-- Generator: Sketch 44.1 (41455) - http://www.bohemiancoding.com/sketch -->
    <title>hot air</title>
    <desc>Created with Sketch.</desc>
    <defs></defs>
    <g id="Page-1" stroke="none" stroke-width="1" fill="none" fill-rule="evenodd" opacity="0.049999997">
        <g id="slds-homepage-colors" transform="translate(-1505.000000, -389.000000)">
            <g id="header" transform="translate(140.000000, -7.000000)">
                <g id="hot-air" transform="translate(1365.000000, 396.000000)">
                    <path d="M32,16.3803902 C32,21.8198071 27.6620219,29.2920482 18.9860656,38.7971135 C18.0420669,39.8313245 14.0377611,39.9161499 13.1276282,38.9215173 C4.37587606,29.3572247 7.1632,0 16,0 C24.8368,0 32,7.33350071 32,16.3803902 Z" id="Stroke-2" fill="#1AA2DC"></path>
                    <path d="M18.9860656,38.7971135 C19.6797384,40.167123 14.0377611,39.9161499 13.1276282,38.9215173 C4.37587606,29.3572247 0,21.8435156 0,16.3803902 C0,7.33350071 7.1632,0 16,0 C16.81,10.1404875 13.96875,28.8878723 18.9860656,38.7971135 Z" id="Stroke-2" fill="#1AA2DC"></path>
                    <path d="M18.9860656,38.7971135 C18.0420669,39.8313245 14.0377611,39.9161499 13.1276282,38.9215173 C4.37587606,29.3572247 0,21.8435156 0,16.3803902 C0,7.33350071 7.1632,0 16,0 C16,11.3121202 16,26.7861221 18.9860656,38.7971135 Z" id="Stroke-2" fill="#1AA2DC"></path>
                    <path d="M13.5384615,39.3839314 C13.5384615,42.329912 13.5384615,43.8365972 13.5384615,43.903987 C13.5384615,43.8365972 13.5384615,42.329912 13.5384615,39.3839314 Z" id="Path-8" stroke="#1AA2DC" stroke-width="2" stroke-linecap="round" stroke-linejoin="round"></path>
                    <path d="M18.4615385,39.3839314 C18.4615385,42.329912 18.4615385,43.8365972 18.4615385,43.903987 C18.4615385,43.8365972 18.4615385,42.329912 18.4615385,39.3839314 Z" id="Path-8" stroke="#1AA2DC" stroke-width="2" stroke-linecap="round" stroke-linejoin="round"></path>
                    <path d="M12.3769231,36.6592569 L19.6230769,36.6592569 L19.6230769,36.6592569 C20.3410471,36.6592569 20.9230769,37.2412867 20.9230769,37.9592569 L20.9230769,38.3931407 L20.9230769,38.3931407 C20.9230769,39.3507382 20.1467907,40.1270245 19.1891932,40.1270245 L12.8108068,40.1270245 L12.8108068,40.1270245 C11.8532093,40.1270245 11.0769231,39.3507382 11.0769231,38.3931407 L11.0769231,37.9592569 L11.0769231,37.9592569 C11.0769231,37.2412867 11.6589529,36.6592569 12.3769231,36.6592569 Z" id="Rectangle" fill="#1AA2DC"></path>
                    <rect id="Rectangle-75" fill="#1AA2DC" x="12.8" y="43.0460464" width="6.4" height="4.95395364" rx="1.3"></rect>
                    <path d="M12.0615385,43.2960464 L19.9384615,43.2960464" id="Path-11" stroke="#1AA2DC" stroke-width="2" stroke-linecap="round"></path>
                </g>
            </g>
        </g>
    </g>
</svg>