<?xml version="1.0" encoding="UTF-8" standalone="no"?>
<svg width="546px" height="184px" viewBox="0 0 546 184" version="1.1" xmlns="http://www.w3.org/2000/svg" xmlns:xlink="http://www.w3.org/1999/xlink">
    <!-- Generator: Sketch 44.1 (41455) - http://www.bohemiancoding.com/sketch -->
    <title>cloud</title>
    <desc>Created with Sketch.</desc>
    <defs>
        <linearGradient x1="62.8971466%" y1="-14.6570122%" x2="57.2958299%" y2="35.2000762%" id="linearGradient-1">
            <stop stop-color="#FDFDFD" offset="0%"></stop>
            <stop stop-color="#FAFDFD" stop-opacity="0" offset="100%"></stop>
        </linearGradient>
    </defs>
    <g id="Page-1" stroke="none" stroke-width="1" fill="none" fill-rule="evenodd">
        <g id="slds-homepage-colors" transform="translate(-181.000000, -596.000000)" fill="url(#linearGradient-1)">
            <g id="header" transform="translate(140.000000, -7.000000)">
                <path d="M244.832104,647.717776 C263.730272,628.03792 290.038944,615.824856 319.137338,615.824856 C357.812583,615.824856 391.561055,637.385648 409.526604,669.39572 C425.150022,662.418686 442.43523,658.536409 460.620505,658.536409 C530.383082,658.536409 586.93924,715.569757 586.93924,785.925856 C586.93924,856.281954 530.383082,913.315302 460.620505,913.315302 C452.104855,913.315302 443.78289,912.46107 435.735991,910.837218 C419.914004,939.05125 389.752782,958.117687 355.141676,958.117687 C340.654329,958.117687 326.948233,954.773983 314.744421,948.822026 C298.704334,986.548125 261.323039,1013 217.766594,1013 C172.400248,1013 133.734769,984.305971 118.900741,944.061112 C112.413091,945.432763 105.689438,946.155198 98.7981419,946.155198 C44.7859373,946.155198 1,901.927181 1,847.37029 C1,810.802691 20.6696548,778.880483 49.90314,761.800743 C43.8842419,747.952437 40.541133,732.677158 40.541133,716.617614 C40.541133,653.86824 91.4934327,603 154.345182,603 C191.246333,603 224.039399,620.538584 244.832104,647.717776" id="cloud"></path>
            </g>
        </g>
    </g>
</svg>