<?xml version="1.0" encoding="UTF-8" standalone="no"?>
<svg width="309px" height="90px" viewBox="0 0 309 90" version="1.1" xmlns="http://www.w3.org/2000/svg" xmlns:xlink="http://www.w3.org/1999/xlink">
    <!-- Generator: Sketch 44.1 (41455) - http://www.bohemiancoding.com/sketch -->
    <title>cloud</title>
    <desc>Created with Sketch.</desc>
    <defs>
        <linearGradient x1="60.2678239%" y1="-9.93597872%" x2="60.2678239%" y2="38.5801205%" id="linearGradient-1">
            <stop stop-color="#FDFDFD" offset="0%"></stop>
            <stop stop-color="#FAFDFD" stop-opacity="0" offset="100%"></stop>
        </linearGradient>
    </defs>
    <g id="Page-1" stroke="none" stroke-width="1" fill="none" fill-rule="evenodd" opacity="0.400000006">
        <g id="slds-homepage-colors" transform="translate(-517.000000, -416.000000)" fill="url(#linearGradient-1)">
            <g id="header" transform="translate(140.000000, -7.000000)">
                <path d="M493.132826,448.332976 C503.838789,437.184181 518.742861,430.265383 535.227332,430.265383 C557.137166,430.265383 576.255944,442.479743 586.43357,460.613704 C595.284361,456.661158 605.076569,454.461818 615.378672,454.461818 C654.899727,454.461818 686.93924,486.771663 686.93924,526.628952 C686.93924,566.486241 654.899727,598.796086 615.378672,598.796086 C610.554488,598.796086 605.840029,598.312158 601.281397,597.392232 C592.318115,613.375706 575.231543,624.176994 555.624076,624.176994 C547.416879,624.176994 539.652267,622.282759 532.73871,618.910928 C523.651873,640.283063 502.475072,655.268261 477.8,655.268261 C452.099604,655.268261 430.195302,639.012866 421.791707,616.213833 C418.116402,616.990884 414.3074,617.400149 410.403425,617.400149 C379.805082,617.400149 355,592.344626 355,561.437713 C355,540.721878 366.143016,522.637693 382.704018,512.961884 C379.294264,505.116708 377.400366,496.463142 377.400366,487.365282 C377.400366,451.817263 406.265249,423 441.871265,423 C462.776061,423 481.353594,432.935747 493.132826,448.332976" id="cloud"></path>
            </g>
        </g>
    </g>
</svg>