<?xml version="1.0" encoding="UTF-8" standalone="no"?>
<svg width="743px" height="449px" viewBox="0 0 743 449" version="1.1" xmlns="http://www.w3.org/2000/svg" xmlns:xlink="http://www.w3.org/1999/xlink">
    <!-- Generator: Sketch 44.1 (41455) - http://www.bohemiancoding.com/sketch -->
    <title>Group 14</title>
    <desc>Created with Sketch.</desc>
    <defs></defs>
    <g id="Page-1" stroke="none" stroke-width="1" fill="none" fill-rule="evenodd">
        <g id="Group-14" transform="translate(0.000000, -87.000000)">
            <g id="architecture">
                <g id="first-layer" transform="translate(0.000000, 87.000000)">
                    <polygon id="Fill-17" fill="#F4F6F9" points="0.484399717 241.340669 325.155141 428.696927 742.587076 187.808374 417.916758 0.451269188"></polygon>
                    <polygon id="Fill-49" fill="#D8DDE6" points="0.516257636 241.314713 0.516257636 261.392711 325.228092 448.748545 325.228092 428.671394"></polygon>
                    <polygon id="Fill-50" fill="#A8B7C7" points="325.227881 428.671352 325.227881 448.748503 742.619145 207.839625 742.619145 187.782375"></polygon>
                    <polygon id="Fill-71" fill="#A8B7C7" points="252.957557 206.449574 255.584564 214.574437 186.008056 254.722388 183.114578 246.362942 168.618801 244.689529 237.90342 204.702059"></polygon>
                    <path d="M410.437984,105.145303 C404.990365,108.290152 404.443019,113.119847 409.221707,115.878947 C414.000818,118.6372 422.368605,118.322164 427.816648,115.178162 L500.76874,73.0828357 C506.217207,69.9388338 506.760316,65.108292 501.976545,62.3483453 C497.19235,59.5879752 488.82075,59.9025871 483.372707,63.0470124 L410.437984,105.145303 Z" id="Fill-72" fill="#A8B7C7"></path>
                    <path d="M336.746509,167.729317 L402.26664,129.961069 C407.715107,126.817067 408.259487,121.986525 403.476139,119.226155 C398.693215,116.466208 390.322039,116.78082 384.873996,119.924822 L319.357254,157.696458 L333.853031,159.370295 L336.746509,167.729317 Z" id="Fill-74" fill="#A8B7C7"></path>
                    <polygon id="Fill-76" fill="#A8B7C7" points="313.563265 161.047773 328.055229 162.715682 330.95252 171.080633 261.378977 211.229007 258.755359 203.104144 243.986333 201.318944"></polygon>
                    <path d="M162.904118,247.973476 L109.223949,278.947716 C103.775906,282.092141 103.228559,286.921836 108.007247,289.680936 C112.786359,292.439613 121.154146,292.124577 126.602613,288.980575 L180.293373,258.006335 L177.395658,249.641384 L162.904118,247.973476 Z" id="Fill-78" fill="#A8B7C7"></path>
                    <polygon id="Fill-80" fill="#9FC8C0" points="0.484399717 241.340754 35.2701118 261.414941 452.702046 20.526388 417.916758 0.451353875"></polygon>
                    <polygon id="Fill-106" fill="#611613" points="58.4625918 261.410495 452.701792 33.9122141 481.693769 50.6374571 87.4494849 278.142089"></polygon>
                    <polygon id="Fill-108" fill="#A8B7C7" points="58.4625918 261.410495 64.2444651 264.748006 452.691625 40.5876604 452.701792 33.9122141"></polygon>
                    <polygon id="Fill-110" fill="#D8DDE6" points="452.701707 33.9123834 481.694108 50.6376265 475.885969 53.9734442 452.691964 40.5878298"></polygon>
                    <polygon id="Fill-131" fill="#FF9A3C" points="377.335107 157.581326 516.478379 77.3002443 620.837634 137.525347 481.695633 217.807699"></polygon>
                    <polygon id="Fill-133" fill="#A8B7C7" points="377.335107 157.581326 516.478379 77.3002443 516.47033 84.0942523 383.322871 161.036552"></polygon>
                    <polygon id="Fill-135" fill="#D8DDE6" points="516.478507 77.3003713 516.478507 84.0943794 614.874992 140.965456 620.837761 137.52505"></polygon>
                    <polygon id="Fill-167" fill="#D94F22" points="493.269208 224.608905 632.432391 144.316391 713.600183 191.157149 574.444201 271.44797"></polygon>
                    <polygon id="Fill-169" fill="#A8B7C7" points="493.289458 224.597303 632.432307 144.316221 632.424257 151.110229 499.276798 228.052529"></polygon>
                    <polygon id="Fill-171" fill="#D8DDE6" points="632.425401 144.257194 632.425401 151.051202 707.637626 194.597216 713.599971 191.157233"></polygon>
                    <polygon id="Fill-195" fill="#4AB0BC" points="128.033042 301.564416 365.737173 164.391086 562.861009 278.14679 325.152642 415.326472"></polygon>
                    <polygon id="Fill-197" fill="#A8B7C7" points="127.933359 301.495778 365.558269 164.361403 365.550643 171.155411 133.921122 304.951004"></polygon>
                    <polygon id="Fill-199" fill="#D8DDE6" points="365.551321 164.302122 365.551321 171.09613 556.898791 281.587153 562.861136 278.146747"></polygon>
                </g>
                <polygon id="Fill-205" fill="#54698D" style="mix-blend-mode: multiply;" opacity="0.200000003" points="129.784295 318.12539 365.793856 181.92977 561.223123 294.707764 325.209325 430.909312"></polygon>
                <g id="feed" transform="translate(128.000000, 130.393794)">
                    <path d="M237.793729,0.558181153 L0.0900215498,137.731512 L197.208774,251.493567 L434.917989,114.313885 L237.793729,0.558181153 Z M237.793729,2.51402554 L431.528849,114.313885 L197.208774,249.537722 L3.47873818,137.731512 L237.793729,2.51402554 Z" id="Fill-207" fill="#B6DFE4"></path>
                    <polygon id="Fill-201" fill="#B6DFE4" points="0.218017578 137.752934 0.276245117 143.600102 197.081385 257.154701 197.209325 250.493651"></polygon>
                    <polygon id="Fill-203" fill="#6EBFC9" points="197.209283 251.476811 197.081343 257.154701 434.596924 120.127812 434.818359 114.298833"></polygon>
                    <polygon id="Fill-205" fill="#FFFFFF" points="1.78429514 137.731596 237.793856 1.53597632 433.223123 114.313969 197.209325 250.515518"></polygon>
                    <polygon id="Fill-209" fill="#6EBFC9" points="11.6811778 137.71919 29.0738221 147.755436 46.4664663 137.718766 29.0733984 127.681673"></polygon>
                    <polygon id="Fill-211" fill="#8BCEEB" points="40.8574815 127.700642 46.6550296 131.046199 133.619098 80.861578 127.821126 77.5155978"></polygon>
                    <polygon id="Fill-213" fill="#B6DFE4" points="58.2474992 137.739049 64.0454709 141.084605 174.20185 77.516487 168.403878 74.1709303"></polygon>
                    <polygon id="Fill-215" fill="#B6DFE4" points="69.8426377 144.430459 75.6406094 147.776015 197.032412 77.5167834 191.23444 74.1708033"></polygon>
                    <polygon id="Fill-217" fill="#B6DFE4" points="81.4377762 151.121868 87.2353243 154.467425 162.245048 110.971377 156.447923 107.625397"></polygon>
                    <polygon id="Fill-219" fill="#8BCEEB" points="104.27105 164.502656 110.069021 167.848212 197.03309 117.663591 191.235118 114.317611"></polygon>
                    <polygon id="Fill-221" fill="#B6DFE4" points="121.661491 174.54102 127.459039 177.886576 237.615418 114.318458 231.81787 110.972901"></polygon>
                    <polygon id="Fill-223" fill="#B6DFE4" points="133.256629 181.232472 139.054601 184.578029 208.62772 144.429654 202.830172 141.084097"></polygon>
                    <polygon id="Fill-225" fill="#B6DFE4" points="144.851387 187.923882 150.649358 191.269438 231.81715 144.429104 226.019602 141.083547"></polygon>
                    <polygon id="Fill-227" fill="#6EBFC9" points="75.2825467 174.541443 92.6747673 184.578113 110.067835 174.54102 92.6747673 164.504349"></polygon>
                    <polygon id="Fill-229" fill="#8BCEEB" points="168.045392 201.298063 173.843364 204.64362 260.807432 154.458999 255.00946 151.113019"></polygon>
                    <polygon id="Fill-231" fill="#B6DFE4" points="185.435409 211.336427 191.233381 214.681984 301.38976 151.113866 295.591788 147.768309"></polygon>
                    <polygon id="Fill-233" fill="#6EBFC9" points="139.056889 211.336851 156.449109 221.373097 173.841754 211.336427 156.449109 201.299334"></polygon>
                    <polygon id="Fill-235" fill="#B6DFE4" points="40.4967075 147.776185 46.293832 144.428934 81.0778495 164.502698 75.2824196 167.848255"></polygon>
                    <polygon id="Fill-237" fill="#B6DFE4" points="104.270245 184.579426 110.066946 181.232175 144.850963 201.305939 139.055533 204.651072"></polygon>
                    <polygon id="Fill-239" fill="#B6DFE4" points="197.211782 218.035713 203.009754 221.38127 272.582873 181.233319 266.785325 177.887762"></polygon>
                    <polygon id="Fill-241" fill="#B6DFE4" points="208.806497 224.727123 214.604469 228.07268 295.77226 181.232345 289.974712 177.886788"></polygon>
                    <polygon id="Fill-243" fill="#6EBFC9" points="226.200243 13.9393918 231.997791 17.2849485 243.595429 10.5921414 237.797457 7.24658462"></polygon>
                    <polygon id="Fill-245" fill="#6EBFC9" points="289.972933 50.7422095 295.770904 54.0877663 307.368542 47.3953825 301.570571 44.0494024"></polygon>
                    <polygon id="Fill-247" fill="#6EBFC9" points="353.747275 87.5446462 359.545247 90.8902029 371.142461 84.1973957 365.344913 80.8514156"></polygon>
                </g>
            </g>
        </g>
    </g>
</svg>