<?xml version="1.0" encoding="UTF-8" standalone="no"?>
<svg width="869px" height="402px" viewBox="0 0 869 402" version="1.1" xmlns="http://www.w3.org/2000/svg" xmlns:xlink="http://www.w3.org/1999/xlink">
    <!-- Generator: Sketch 44.1 (41455) - http://www.bohemiancoding.com/sketch -->
    <title>living-wires</title>
    <desc>Created with Sketch.</desc>
    <defs></defs>
    <g id="Page-1" stroke="none" stroke-width="1" fill="none" fill-rule="evenodd">
        <g id="slds-homepage-colors" transform="translate(-529.000000, -3041.000000)">
            <g id="Group-15" transform="translate(67.000000, 3010.000000)">
                <g id="Group-6" transform="translate(906.000000, 249.500000) scale(-1, 1) translate(-906.000000, -249.500000) translate(353.000000, 31.000000)">
                    <g id="Group-4-Copy-4">
                        <g id="living-wires" transform="translate(127.000000, 0.000000)">
                            <g id="wireframes-blue" opacity="0.5" transform="translate(4.600000, 1.404905)" stroke="#1AA2DC" stroke-width="0.7" stroke-linecap="square">
                                <path d="M329.4,381.887867 L413.4,254.595095" id="Line"></path>
                                <path d="M329.4,381.595095 L108.4,338.595095" id="Line"></path>
                                <path d="M212.45,138.506769 L413.4,253.595095" id="Line"></path>
                                <path d="M379.4,92.5950952 L213.4,138.595095" id="Line"></path>
                                <path d="M599.4,11.5950952 L413.4,253.595095" id="Line"></path>
                                <path d="M379.4,92.5950952 L413.4,253.595095" id="Line"></path>
                                <path d="M213.4,139.595095 L108.4,337.595095" id="Line"></path>
                                <path d="M108.4,337.595095 L0.4,311.595095" id="Line"></path>
                                <path d="M108.4,337.595095 L413.4,253.595095" id="Line"></path>
                                <path d="M413.4,253.595095 L808.4,266.595095" id="Line"></path>
                                <path d="M779.4,49.5950952 L413.4,253.595095" id="Line"></path>
                                <path d="M379.4,92.5950952 L512.4,125.595095" id="Line"></path>
                                <path d="M599.4,11.5950952 L808.4,266.595095" id="Line"></path>
                                <path d="M779.4,50.5950952 L808.4,266.595095" id="Line"></path>
                                <path d="M780.4,49.5950952 L863.4,0.595095227" id="Line"></path>
                                <path d="M780.4,50.5950952 L599.4,11.5950952" id="Line"></path>
                                <path d="M808.4,266.595095 L744.4,398.595095" id="Line"></path>
                                <path d="M413.4,253.595095 L744.4,398.595095" id="Line"></path>
                            </g>
                            <g id="circles" transform="translate(0.400000, 0.000000)" fill="#1AA2DC">
                                <circle id="Oval-2" cx="4.6" cy="312" r="4"></circle>
                                <ellipse id="Oval-2" cx="865.2" cy="4.2083187" rx="4.2" ry="4.2083187"></ellipse>
                                <circle id="Oval-2" cx="113.6" cy="339" r="4"></circle>
                                <ellipse id="Oval-2" cx="217" cy="140.262367" rx="2.1" ry="2.10415935"></ellipse>
                                <circle id="Oval-2" cx="417.6" cy="254.399902" r="2"></circle>
                                <ellipse id="Oval-2" cx="748.3" cy="399.073967" rx="2.1" ry="2.10415935"></ellipse>
                                <ellipse id="Oval-2" cx="383.6" cy="83.9708611" rx="1.4" ry="1.4027729"></ellipse>
                                <ellipse id="Oval-2" cx="333.598963" cy="383" rx="2.00103678" ry="2"></ellipse>
                                <circle id="Oval-2" cx="516.6" cy="127" r="2"></circle>
                                <circle id="Oval-2" cx="604.6" cy="13" r="3"></circle>
                                <circle id="Oval-2" cx="682.1" cy="107.5" r="3.5"></circle>
                                <circle id="Oval-2" cx="813.1" cy="267.5" r="3.5"></circle>
                                <circle id="Oval-2" cx="783.6" cy="51" r="3"></circle>
                            </g>
                        </g>
                    </g>
                </g>
            </g>
        </g>
    </g>
</svg>