<?xml version="1.0" encoding="UTF-8" standalone="no"?>
<svg width="322px" height="297px" viewBox="0 0 322 297" version="1.1" xmlns="http://www.w3.org/2000/svg" xmlns:xlink="http://www.w3.org/1999/xlink">
    <!-- Generator: Sketch 44.1 (41455) - http://www.bohemiancoding.com/sketch -->
    <title>living-mapcompass</title>
    <desc>Created with Sketch.</desc>
    <defs>
        <circle id="path-1" cx="79.8" cy="79.1282051" r="79"></circle>
    </defs>
    <g id="Page-1" stroke="none" stroke-width="1" fill="none" fill-rule="evenodd">
        <g id="slds-homepage-colors" transform="translate(-945.000000, -3058.000000)">
            <g id="Group-15" transform="translate(67.000000, 3010.000000)">
                <g id="Group-6" transform="translate(906.000000, 249.500000) scale(-1, 1) translate(-906.000000, -249.500000) translate(353.000000, 31.000000)">
                    <g id="living-mapcompass" transform="translate(258.000000, 16.000000)">
                        <g id="map" transform="translate(88.600000, 0.012821)">
                            <g id="Group" transform="translate(0.000000, -0.000000)">
                                <polygon id="Path" fill="#DA5224" points="79.4 193.987179 0.4 164.987179 0.4 0.987179487 79.4 30.9871795"></polygon>
                                <polygon id="Path" fill="#B32E1B" points="79.4 30.9871795 157.4 1.98717949 157.4 164.987179 79.4 193.987179"></polygon>
                                <polygon id="Path" fill="#DA5224" points="234.4 193.987179 157.4 164.987179 157.4 1.98717949 234.4 29.9871795"></polygon>
                                <path d="M219.176804,113.615064 L218.495648,112.933596 L218.495648,112.933596 C217.40243,111.839878 215.629568,111.839472 214.53585,112.932689 C214.534876,112.933663 214.533903,112.934637 214.532931,112.935611 L208.45781,119.025891 L202.362801,112.928089 L202.362801,112.928089 C201.270593,111.83538 199.499726,111.833818 198.405592,112.924598 L197.714105,113.613964 L197.714105,113.613964 C196.61896,114.705752 196.616239,116.478612 197.708027,117.573757 C197.709557,117.575292 197.711088,117.576825 197.712622,117.578356 L203.814845,123.670987 L197.712622,129.763619 L197.712622,129.763619 C196.618294,130.856226 196.616899,132.629088 197.709507,133.723415 C197.711038,133.724949 197.712571,133.72648 197.714105,133.72801 L198.405591,134.417376 L198.405591,134.417376 C199.499725,135.508156 201.270593,135.506594 202.362801,134.413885 L208.45781,128.316079 L214.532931,134.406362 L214.532931,134.406362 C215.625035,135.501192 217.397896,135.503402 218.492726,134.411297 C218.493701,134.410325 218.494675,134.409352 218.495648,134.408378 L219.176804,133.72691 L219.175897,133.726004 C220.268761,132.63264 220.268761,130.860477 219.175897,129.767112 L213.084375,123.670987 L219.176804,117.575768 L219.175897,117.574862 C220.268761,116.481498 220.268761,114.709335 219.175897,113.61597 Z" id="Shape" fill="#FFFFFF"></path>
                                <path d="M5.709375,103.527197 C17.8928385,119.255228 29.1174479,117.62981 39.3832031,98.6509415 C59.0378906,60.0786008 92.3904297,91.6340582 103.975977,113.566948 C115.561523,135.499837 134.34668,136.713088 146.931641,98.6509415 C159.516602,60.5887952 194.073633,38.1607572 207.942383,72.4326923 C210.637947,79.0938688 207.942383,93.57225 207.942383,98.6509415 C207.942383,102.036736 207.942383,105.392894 207.942383,108.719417" id="Path-87" stroke="#FFFFFF" stroke-width="5.6" stroke-linecap="round" stroke-dasharray="4.199999999999999,9.799999999999999"></path>
                            </g>
                        </g>
                        <g id="compass" transform="translate(0.200000, 113.259615)">
                            <g id="Group-5" transform="translate(0.000000, 26.612179)">
                                <mask id="mask-2" fill="white">
                                    <use xlink:href="#path-1"></use>
                                </mask>
                                <g id="base">
                                    <use fill="#FF9A3C" fill-rule="evenodd" xlink:href="#path-1"></use>
                                    <circle stroke="#611613" stroke-width="11" cx="79.8" cy="79.1282051" r="73.5"></circle>
                                </g>
                                <path d="M79.8,147.128205 C117.355363,147.128205 147.8,116.683568 147.8,79.1282051 C147.8,41.5728421 117.355363,11.1282051 79.8,11.1282051 L79.8,147.128205 Z" id="base" fill="#FFB75D" mask="url(#mask-2)"></path>
                                <circle id="Oval-5" fill="#611613" mask="url(#mask-2)" cx="79.8" cy="79.1282051" r="27"></circle>
                                <polygon id="Triangle" fill="#611613" mask="url(#mask-2)" points="79.8 42.1282051 85.8 58.1282051 73.8 58.1282051"></polygon>
                                <polygon id="Triangle" fill="#611613" mask="url(#mask-2)" transform="translate(79.800000, 108.128205) scale(1, -1) translate(-79.800000, -108.128205) " points="79.8 100.128205 85.8 116.128205 73.8 116.128205"></polygon>
                                <polygon id="Triangle" fill="#611613" mask="url(#mask-2)" transform="translate(108.800000, 79.128205) scale(1, -1) rotate(90.000000) translate(-108.800000, -79.128205) " points="108.8 71.1282051 114.8 87.1282051 102.8 87.1282051"></polygon>
                                <polygon id="Triangle" fill="#611613" mask="url(#mask-2)" transform="translate(50.800000, 79.128205) scale(-1, -1) rotate(90.000000) translate(-50.800000, -79.128205) " points="50.8 71.1282051 56.8 87.1282051 44.8 87.1282051"></polygon>
                            </g>
                            <rect id="Rectangle" fill="#611613" x="69.8" y="18.7403846" width="20" height="14"></rect>
                            <rect id="Rectangle-2" fill="#611613" x="62.8" y="0.740384615" width="34" height="22"></rect>
                            <g id="direction" transform="translate(78.250153, 108.096147) rotate(45.000000) translate(-78.250153, -108.096147) translate(60.250153, 60.596147)">
                                <path d="M18.1372383,0.190589667 L1.04903636,45.9869709 L1.04903636,45.9869709 C0.668859814,47.005844 0.668859814,48.127644 1.04903636,49.1465171 L18.1372383,94.9428983 L35.2254403,49.1465171 L35.2254403,49.1465171 C35.6056168,48.127644 35.6056168,47.005844 35.2254403,45.9869709 L18.1372383,0.190589667 Z" id="Path-5" fill="#DA5224"></path>
                                <path d="M18.1372383,0.190589667 L18.1372383,94.9428983 L35.2254403,49.1465171 L35.2254403,49.1465171 C35.6056168,48.127644 35.6056168,47.005844 35.2254403,45.9869709 L18.1372383,0.190589667 Z" id="Path-5" fill="#B32E1B"></path>
                            </g>
                        </g>
                    </g>
                </g>
            </g>
        </g>
    </g>
</svg>