<?xml version="1.0" encoding="UTF-8" standalone="no"?>
<svg width="816px" height="392px" viewBox="0 0 816 392" version="1.1" xmlns="http://www.w3.org/2000/svg" xmlns:xlink="http://www.w3.org/1999/xlink">
    <!-- Generator: Sketch 44.1 (41455) - http://www.bohemiancoding.com/sketch -->
    <title>geo_lines_dots</title>
    <desc>Created with Sketch.</desc>
    <defs></defs>
    <g id="Page-1" stroke="none" stroke-width="1" fill="none" fill-rule="evenodd">
        <g id="slds-homepage-colors" transform="translate(-793.000000, -4916.000000)">
            <g id="animation-section" transform="translate(312.000000, 4727.000000)">
                <g id="Group-6" transform="translate(889.000000, 359.000000) scale(-1, 1) translate(-889.000000, -359.000000) translate(480.000000, 137.000000)">
                    <g id="Group-4-Copy-4">
                        <g id="Group-16" transform="translate(409.000000, 231.000000) scale(-1, -1) translate(-409.000000, -231.000000) translate(0.000000, 18.000000)">
                            <g id="geo_lines_dots">
                                <g id="wireframes-blue" opacity="0.5" transform="translate(4.600000, 2.404905)" stroke="#1AA2DC" stroke-width="0.7" stroke-linecap="square">
                                    <path d="M329.4,370.887867 L413.4,243.595095" id="Line"></path>
                                    <path d="M212.45,127.506769 L413.4,242.595095" id="Line"></path>
                                    <path d="M379.4,81.5950952 L213.4,127.595095" id="Line"></path>
                                    <path d="M599.4,0.595095227 L413.4,242.595095" id="Line"></path>
                                    <path d="M379.4,81.5950952 L413.4,242.595095" id="Line"></path>
                                    <path d="M213.4,128.595095 L108.4,326.595095" id="Line"></path>
                                    <path d="M108.4,326.595095 L0.4,300.595095" id="Line"></path>
                                    <path d="M108.4,326.595095 L413.4,242.595095" id="Line"></path>
                                    <path d="M413.4,242.595095 L808.4,255.595095" id="Line"></path>
                                    <path d="M779.4,38.5950952 L413.4,242.595095" id="Line"></path>
                                    <path d="M379.4,81.5950952 L512.4,114.595095" id="Line"></path>
                                    <path d="M599.4,0.595095227 L808.4,255.595095" id="Line"></path>
                                    <path d="M808.4,255.595095 L744.4,387.595095" id="Line"></path>
                                    <path d="M413.4,242.595095 L744.4,387.595095" id="Line"></path>
                                </g>
                                <g id="circles" transform="translate(0.400000, 0.000000)" fill="#1AA2DC">
                                    <circle id="Oval-2" cx="4.6" cy="302" r="4"></circle>
                                    <circle id="Oval-2" cx="113.6" cy="329" r="4"></circle>
                                    <ellipse id="Oval-2" cx="217" cy="130.262367" rx="2.1" ry="2.10415935"></ellipse>
                                    <circle id="Oval-2" cx="417.6" cy="244.399902" r="2"></circle>
                                    <ellipse id="Oval-2" cx="748.3" cy="389.073967" rx="2.1" ry="2.10415935"></ellipse>
                                    <ellipse id="Oval-2" cx="383.6" cy="73.9708611" rx="1.4" ry="1.4027729"></ellipse>
                                    <ellipse id="Oval-2" cx="333.598963" cy="373" rx="2.00103678" ry="2"></ellipse>
                                    <circle id="Oval-2" cx="516.6" cy="117" r="2"></circle>
                                    <circle id="Oval-2" cx="604.6" cy="3" r="3"></circle>
                                    <circle id="Oval-2" cx="682.1" cy="97.5" r="3.5"></circle>
                                    <circle id="Oval-2" cx="813.1" cy="257.5" r="3.5"></circle>
                                    <circle id="Oval-2" cx="783.6" cy="41" r="3"></circle>
                                </g>
                            </g>
                        </g>
                    </g>
                </g>
            </g>
        </g>
    </g>
</svg>