<?xml version="1.0" encoding="UTF-8" standalone="no"?>
<svg width="201px" height="346px" viewBox="0 0 201 346" version="1.1" xmlns="http://www.w3.org/2000/svg" xmlns:xlink="http://www.w3.org/1999/xlink">
    <!-- Generator: Sketch 44.1 (41455) - http://www.bohemiancoding.com/sketch -->
    <title>icon</title>
    <desc>Created with Sketch.</desc>
    <defs></defs>
    <g id="Page-1" stroke="none" stroke-width="1" fill="none" fill-rule="evenodd">
        <g id="slds-homepage-colors" transform="translate(-1107.000000, -4727.000000)">
            <g id="animation-section" transform="translate(312.000000, 4727.000000)">
                <g id="icon" transform="translate(787.000000, 0.000000)">
                    <g id="Group-25" transform="translate(108.872022, 285.611457) scale(1, -1) rotate(25.000000) translate(-108.872022, -285.611457) translate(0.872022, 261.611457)">
                        <path d="M23.9784946,0 L191.833388,0 L191.833388,2.48689958e-14 C205.073345,1.06774103e-14 215.806452,10.7331063 215.806452,23.973064 L215.806452,23.973064 L215.806452,23.973064 C215.806452,37.2130216 205.073345,47.9461279 191.833388,47.9461279 L23.9784946,47.9461279 L23.9784946,0 Z" id="Rectangle-29" fill="#721F19"></path>
                        <ellipse id="Oval-9" fill="#D6502B" cx="23.9784946" cy="23.973064" rx="23.9784946" ry="23.973064"></ellipse>
                    </g>
                    <g id="Group-25" transform="translate(108.719375, 285.611457) scale(-1, -1) rotate(25.000000) translate(-108.719375, -285.611457) translate(0.719375, 261.611457)">
                        <path d="M23.9784946,0 L191.833388,0 L191.833388,2.48689958e-14 C205.073345,1.06774103e-14 215.806452,10.7331063 215.806452,23.973064 L215.806452,23.973064 L215.806452,23.973064 C215.806452,37.2130216 205.073345,47.9461279 191.833388,47.9461279 L23.9784946,47.9461279 L23.9784946,0 Z" id="Rectangle-29" fill="#86261B"></path>
                        <ellipse id="Oval-9" fill="#D6502B" cx="23.9784946" cy="23.973064" rx="23.9784946" ry="23.973064"></ellipse>
                    </g>
                    <g id="Group-17" transform="translate(29.000000, 0.000000)">
                        <path d="M31.1054687,92.3447266 C24.1591797,107.283203 19.2021484,106.727539 14.6640625,112.506836 C10.1259766,118.286133 4.69792542,125.244203 5.34375,137.84375 C6.29492187,156.400391 17.0071615,174.061849 37.4804687,190.828125 C68.906901,190.334635 85.5683594,189.346354 87.4648437,187.863281 C89.0483404,186.624968 93.6040414,169.845845 88.5839844,137.84375 C85.2372797,116.50902 82.0247146,109.635648 78.9462891,117.223633 C79.1188151,127.339193 76.2366536,135.019531 70.2998047,140.264648 C61.3945313,148.132324 44.8466797,146.019531 37.4804688,140.264648 C30.1142578,134.509766 28.8886719,125.240234 31.1054687,117.223633 C33.3222656,109.207031 35.0537109,103.491211 31.1054687,92.3447266 Z" id="Path-4" fill="#FFB75D"></path>
                        <path d="M8.00146484,122.253906 C0.460449219,139.239258 -7.08642578,170.007324 18.059082,202.940918 C43.2045898,235.874512 80.4335937,233.869141 88.9765625,233.869141 C97.5195312,233.869141 123.335937,225.957031 136.328125,211 C149.320312,196.042969 156.251953,182.625 158.845703,164.908203 C160.57487,153.097005 160.154948,143.757813 157.585937,136.890625 C154.052083,142.64974 151.049479,147.017578 148.578125,149.994141 C146.106771,152.970703 142.807943,155.367188 138.681641,157.183594 C138.940104,146.935547 137.086589,136.760417 133.121094,126.658203 C127.172852,111.504883 118.219727,106.479492 108.56543,91.7470703 C98.9111328,77.0146484 96.6748047,74.4726562 91.9501953,61.09375 C91.0595595,58.5716931 90.9840384,45.0074769 91.9501953,35.6464844 C92.9163523,26.2854919 94.9365234,12.0820312 79.2871094,0.720703125 C83.108724,9.41861979 81.3688151,21.0605469 74.0673828,35.6464844 C68.3590495,45.3203125 66.2457682,58.5654297 67.7275391,75.3818359 C69.9501953,100.606445 79.2871094,113.617188 80.9941406,128.486328 C82.7011719,143.355469 85.3037109,167.274414 58.3476562,176.728516 C23.1162109,180.796875 15.3007812,159.818359 12.5136719,156.898438 C7.56705729,146.343099 6.06298828,134.794922 8.00146484,122.253906 Z" id="Path-3" fill="#FF9A3C"></path>
                    </g>
                    <polygon id="Path-53" fill="#611613" points="51.9411621 285.738037 44.6481934 289.118164 101.823975 315.439209 108.922852 312.056641"></polygon>
                </g>
            </g>
        </g>
    </g>
</svg>