<?xml version="1.0" encoding="UTF-8" standalone="no"?>
<svg width="231px" height="327px" viewBox="0 0 231 327" version="1.1" xmlns="http://www.w3.org/2000/svg" xmlns:xlink="http://www.w3.org/1999/xlink">
    <!-- Generator: Sketch 44.1 (41455) - http://www.bohemiancoding.com/sketch -->
    <title>platform-knife</title>
    <desc>Created with Sketch.</desc>
    <defs></defs>
    <g id="Page-1" stroke="none" stroke-width="1" fill="none" fill-rule="evenodd">
        <g id="slds-homepage-colors" transform="translate(-212.000000, -3877.000000)">
            <g id="Group-2" transform="translate(-400.000000, 3860.000000)">
                <g id="platform-knife" transform="translate(719.784906, 181.621380) rotate(5.000000) translate(-719.784906, -181.621380) translate(597.284906, 10.121380)">
                    <g id="Group-13" transform="translate(147.550343, 141.215791) rotate(-5.000000) translate(-147.550343, -141.215791) translate(52.050343, 116.215791)">
                        <polygon id="Rectangle-18" fill="#FFB75D" points="0 5.60204082 190.433498 5.60204082 190.433498 42.0153061 183.432266 49.0178571 176.431034 42.0153061 169.655429 49.0178571 162.428571 42.0153061 155.466995 49.0178571 148.426108 42.0153061 141.374282 49.0178571 134.423645 42.0153061 127.619323 49.0178571 120.421182 42.0153061 114.113237 49.0178571 106.418719 42.0153061 99.658155 49.0178571 92.4162562 42.0153061 85.892257 49.0178571 78.4137931 42.0153061 0 42.0153061"></polygon>
                        <polygon id="Rectangle-18" fill="#FF9A3C" points="0.120632714 0.364306984 190.120633 0.364306984 190.433498 36.364307 183.432266 43.364307 176.431034 36.364307 169.655429 43.364307 162.428571 36.364307 155.466995 43.364307 148.426108 36.364307 141.374282 43.364307 134.423645 36.364307 127.619323 43.364307 120.421182 36.364307 114.113237 43.364307 106.418719 36.364307 99.658155 43.364307 92.4162562 36.364307 85.892257 43.364307 78.4137931 36.364307 -2.03215222e-12 36.364307"></polygon>
                    </g>
                    <path d="M111.193106,-7.43102738 L149.620938,-6.95441367 L149.620938,-6.95441367 C150.771004,-6.9401496 151.695617,-6.00340843 151.694893,-4.85325408 L151.581463,175.455004 L151.581463,175.455004 C151.580733,176.614802 150.63994,177.554412 149.480142,177.553682 C149.252394,177.553539 149.026187,177.516349 148.810381,177.443569 C122.50376,168.571751 109.350449,154.013564 109.350449,133.769007 C109.350449,113.030112 109.255989,66.6652174 109.067069,-5.32567836 L109.067069,-5.32567837 C109.064026,-6.48547216 110.001757,-7.42813809 111.161551,-7.43118165 C111.172069,-7.43120925 111.182588,-7.43115783 111.193106,-7.43102738 Z" id="Rectangle-4" fill="#FFB75D" transform="translate(130.380978, 85.061247) scale(-1, -1) rotate(45.000000) translate(-130.380978, -85.061247) "></path>
                    <path d="M109.848288,-11.3286504 L148.27612,-10.8520367 L148.27612,-10.8520367 C149.426186,-10.8377727 150.350799,-9.90103148 150.350076,-8.75087713 L150.236645,171.557381 L150.236645,171.557381 C150.235916,172.717178 149.295122,173.656789 148.135324,173.656059 C147.907577,173.655916 147.681369,173.618726 147.465563,173.545946 C121.158942,164.674128 108.005632,150.11594 108.005632,129.871384 C108.005632,109.132489 107.911172,62.7675944 107.722251,-9.22330141 L107.722252,-9.22330141 C107.719208,-10.3830952 108.656939,-11.3257611 109.816733,-11.3288047 C109.827252,-11.3288323 109.83777,-11.3287809 109.848288,-11.3286504 Z" id="Rectangle-4" fill="#FF9A3C" transform="translate(129.036160, 81.163624) scale(-1, -1) rotate(45.000000) translate(-129.036160, -81.163624) "></path>
                    <g id="Group-10" transform="translate(122.231975, 221.366301) rotate(-45.000000) translate(-122.231975, -221.366301) translate(79.231975, 92.866301)">
                        <path d="M30.3762565,0.881940155 L52.0750515,1.05760842 L52.0750515,1.05760842 C68.4688803,1.19032894 81.7201091,14.4588144 81.8314942,30.8528021 L83.1622139,226.712028 L83.1622139,226.712028 C83.2747823,243.280188 69.9348896,256.802591 53.3667295,256.915159 C52.7050974,256.919654 52.0434977,256.90226 51.3830158,256.863005 L29.5632183,255.566159 L29.5632183,255.566159 C13.7856802,254.62843 1.441869,241.610438 1.34368752,225.805362 L0.13397045,31.0673142 L0.13397045,31.0673142 C0.0310482821,14.4990913 13.3788117,0.984458072 29.9470346,0.881535905 C30.0901077,0.880647131 30.2331853,0.880781885 30.3762565,0.881940155 Z" id="Rectangle-16" fill="#611613"></path>
                        <path d="M45.7198215,0.788774415 L55.9190101,0.823927299 L55.9190101,0.823927299 C72.4633578,0.880949634 85.8385699,14.3210016 85.8155827,30.8654317 L85.5434801,226.704361 L85.5434801,226.704361 C85.5205767,243.188552 72.2018691,256.566326 55.7179407,256.662172 L46.1027363,256.718079 L46.1027363,256.718079 C29.5344739,256.814415 16.0251478,243.46128 15.9288119,226.893018 C15.9285664,226.850792 15.92841,226.808566 15.9283428,226.76634 L15.6164611,30.8363502 L15.6164611,30.8363502 C15.5900873,14.2678287 29.0001476,0.815008036 45.5686691,0.788634235 C45.6190533,0.788554033 45.6694376,0.78860076 45.7198215,0.788774415 Z" id="Rectangle-16" fill="#DA5224"></path>
                        <polygon id="Rectangle-17" fill="#FFFFFF" points="43.7781784 0.788306334 58.1025673 0.739730451 57.9891177 17.040364 43.9891177 17.040364"></polygon>
                        <g id="Group-11" transform="translate(30.000000, 201.043716)" fill="#FFFFFF">
                            <rect id="Rectangle-17" x="14" y="0" width="14" height="41.9672131" rx="2.8"></rect>
                            <rect id="Rectangle-17" x="0" y="13.989071" width="42" height="13.989071" rx="2.8"></rect>
                        </g>
                    </g>
                </g>
            </g>
        </g>
    </g>
</svg>